<?xml version="1.0" encoding="UTF-8"?>
<svg width="54px" height="54px" viewBox="0 0 54 54" version="1.1" xmlns="http://www.w3.org/2000/svg" xmlns:xlink="http://www.w3.org/1999/xlink">
    <!-- Generator: sketchtool 50.2 (55047) - http://www.bohemiancoding.com/sketch -->
    <title>F28CD1E1-D594-45FA-BA12-9E99601EADA6</title>
    <desc>Created with sketchtool.</desc>
    <defs></defs>
    <g id="MAKERS-ARK" stroke="none" stroke-width="1" fill="none" fill-rule="evenodd" opacity="0.879551004">
        <g id="MAKERS-ARK_DESKTOP" transform="translate(-1188.000000, -11871.000000)" fill="#E52839">
            <g id="FOOTER" transform="translate(0.000000, 11804.000000)">
                <g id="Social" transform="translate(998.000000, 22.000000)">
                    <path d="M217,99 C202.088312,99 190,86.9116882 190,72 C190,57.0883118 202.088312,45 217,45 C231.911688,45 244,57.0883118 244,72 C244,86.9116882 231.911688,99 217,99 Z M233.115174,71.1790122 L228.595096,71.1790122 L228.595096,66.4389342 C228.595096,66.0772745 228.315299,65.7831498 227.971118,65.7831498 L226.684051,65.7831498 C226.337464,65.7831498 226.057667,66.0772745 226.057667,66.4389342 L226.057667,71.1790122 L221.537589,71.1790122 C221.193409,71.1790122 220.912408,71.473768 220.912408,71.8360589 L220.912408,73.186129 C220.912408,73.5484199 221.193409,73.8419135 221.537589,73.8419135 L226.057667,73.8419135 L226.057667,78.5845161 C226.057667,78.946807 226.337464,79.2403005 226.684051,79.2403005 L227.971118,79.2403005 C228.315299,79.2403005 228.595096,78.946807 228.595096,78.5845161 L228.595096,73.8412823 L233.115174,73.8412823 C233.459354,73.8412823 233.740355,73.5477888 233.740355,73.1854979 L233.740355,71.8354277 C233.740355,71.4731368 233.459354,71.1790122 233.115174,71.1790122 Z M217.925498,75.3358901 C216.97479,74.6296122 216.110728,73.5938641 216.095685,73.275755 C216.095685,72.696342 216.145026,72.4192589 217.383955,71.4068641 C218.985719,70.0915083 219.867832,68.3621057 219.867832,66.5348719 C219.867832,64.8780537 219.385257,63.406168 218.563917,62.3723135 L219.201133,62.3723135 C219.332908,62.3723135 219.462277,62.329394 219.567577,62.2486044 L221.345642,60.8972719 C221.566471,60.7312745 221.659135,60.4352563 221.574895,60.1644849 C221.490054,59.8943446 221.251775,59.7100433 220.980402,59.7100433 L213.028146,59.7100433 C212.158067,59.7100433 211.274149,59.8709914 210.406477,60.1840511 C207.508621,61.2324225 205.482047,63.8227394 205.482047,66.4818537 C205.482047,70.2493005 208.264374,73.1047083 211.98357,73.1943342 C211.910762,73.4928771 211.874058,73.7870018 211.874058,74.0754459 C211.874058,74.6561212 212.014257,75.2058693 212.30308,75.7373135 L212.200789,75.7373135 C208.655488,75.7373135 205.455571,77.5620225 204.24071,80.2773109 C203.924209,80.9835888 203.762949,81.6974407 203.762949,82.4024563 C203.762949,83.0879057 203.930827,83.7474771 204.259965,84.3672849 C205.023541,85.8000381 206.663212,86.9115264 208.879326,87.4985135 C210.023185,87.8014745 211.252487,87.9561109 212.528723,87.9561109 C213.67559,87.9561109 214.768905,87.8008433 215.779785,87.4940953 C218.931565,86.5340875 220.969571,84.1003005 220.969571,81.290968 C220.968969,78.5952459 220.142815,76.9813472 217.925498,75.3358901 Z M207.882285,81.5068277 C207.882285,79.5457862 210.257251,77.8258511 212.964364,77.8258511 L213.037171,77.8258511 C213.62625,77.8334251 214.200887,77.9243135 214.74243,78.0985161 C214.928359,78.232955 215.10767,78.3610823 215.279761,78.4841602 C216.533733,79.3804199 217.362294,79.9718251 217.59275,80.9211031 C217.646905,81.1603161 217.673982,81.399529 217.673982,81.631168 C217.673982,84.0731602 215.938036,85.3108823 212.512477,85.3108823 C209.916079,85.3108823 207.882285,83.6408096 207.882285,81.5068277 L207.882285,81.5068277 Z M210.345703,62.9776044 C210.768709,62.4707758 211.322887,62.2031602 211.94506,62.2031602 L212.015461,62.2044225 C213.773068,62.2587031 215.454859,64.3131576 215.764141,66.7841836 C215.938036,68.1677057 215.644399,69.4685446 214.98131,70.2612927 C214.557102,70.7693836 214.010745,71.0369992 213.363301,71.0369992 C213.363301,71.0369992 213.363301,71.0369992 213.362097,71.0369992 L213.333817,71.0369992 C211.612312,70.9814563 209.894418,68.8487368 209.586942,66.3808667 C209.41425,65.0011316 209.691038,63.7608849 210.345703,62.9776044 L210.345703,62.9776044 Z" id="Google-Plus"></path>
                </g>
            </g>
        </g>
    </g>
</svg>