<?xml version="1.0" encoding="UTF-8"?>
<svg width="147px" height="178px" viewBox="0 0 147 178" version="1.1" xmlns="http://www.w3.org/2000/svg" xmlns:xlink="http://www.w3.org/1999/xlink">
    <!-- Generator: sketchtool 50.2 (55047) - http://www.bohemiancoding.com/sketch -->
    <title>3BAC9407-5BDA-4E02-AFE3-58A2DF2791A1</title>
    <desc>Created with sketchtool.</desc>
    <defs></defs>
    <g id="MAKERS-ARK" stroke="none" stroke-width="1" fill="none" fill-rule="evenodd">
        <g id="MAKERS-ARK_DESKTOP" transform="translate(-1058.000000, -3929.000000)" fill="#E52839">
            <g id="OUR-SERVICES" transform="translate(171.000000, 3737.000000)">
                <g id="Office-space" transform="translate(817.000000, 189.000000)">
                    <g id="Group-3" transform="translate(69.000000, 0.000000)">
                        <g id="Icon4">
                            <g transform="translate(1.500000, 3.000000)">
                                <g id="Group" opacity="0.4" transform="translate(48.328767, 83.568493)" fill-rule="nonzero">
                                    <rect id="Rectangle-path" x="0.594041096" y="0.553767123" width="48.5200685" height="54.2289041"></rect>
                                </g>
                                <g id="Group" opacity="0.4" transform="translate(3.020548, 37.253425)" fill-rule="nonzero">
                                    <rect id="Rectangle-path" x="0.241643836" y="0.694726027" width="139.85137" height="27.970274"></rect>
                                </g>
                                <path d="M14.0958904,20.3383562 L10.0684932,20.3383562 L10.0684932,5.53767123 C9.97568318,2.63513199 12.2045151,0.18341688 15.1027397,0 L131.293151,0 C134.208913,0.146628182 136.458496,2.62116931 136.327397,5.53767123 L136.327397,20.2376712 L132.3,20.2376712 L132.3,5.53767123 C132.3,4.73219178 131.826781,4.02739726 131.293151,4.02739726 L15.1027397,4.02739726 C14.7,4.02739726 14.0958904,4.66171233 14.0958904,5.53767123 L14.0958904,20.3383562 Z" id="Shape" fill-rule="nonzero"></path>
                                <g id="Group" opacity="0.4" transform="translate(11.075342, 2.013699)" fill-rule="nonzero">
                                    <path d="M1.00684932,18.3246575 L1.00684932,3.5239726 C0.911788374,1.7314105 2.2413854,0.180213979 4.02739726,0 L120.217808,0 C122.022208,0.144564318 123.37146,1.71869131 123.238356,3.5239726 L123.238356,18.2239726" id="Shape"></path>
                                </g>
                                <path d="M73.1878767,138.643151 C72.0757417,138.643151 71.1741781,137.741587 71.1741781,136.629452 L71.1741781,100.684932 C71.1741781,99.5727965 72.0757417,98.6712329 73.1878767,98.6712329 C74.3000118,98.6712329 75.2015753,99.5727965 75.2015753,100.684932 L75.2015753,136.629452 C75.2015753,137.741587 74.3000118,138.643151 73.1878767,138.643151 Z" id="Shape" fill-rule="nonzero"></path>
                                <path d="M73.1878767,95.3486301 C72.9213371,95.3467709 72.6578187,95.2920138 72.4126027,95.1875342 C72.1681723,95.0875311 71.9458004,94.9404235 71.7581507,94.754589 C71.6594074,94.6579152 71.5685047,94.5535454 71.4863014,94.4424658 C71.4139008,94.3351185 71.3531467,94.2203608 71.3050685,94.100137 C71.2529677,93.9809873 71.2157688,93.8558637 71.1943151,93.7276027 C71.1792515,93.5971457 71.1792515,93.4653885 71.1943151,93.3349315 C71.1912205,92.7996844 71.4013504,92.2852283 71.7782877,91.9052055 C72.2545415,91.4268364 72.9388001,91.2189125 73.6006849,91.3514384 C73.7281451,91.3807848 73.8527973,91.4212125 73.9732192,91.4722603 C74.0965537,91.5205051 74.2146333,91.5812317 74.3256164,91.6534932 C74.4325874,91.729553 74.5335684,91.8137038 74.6276712,91.9052055 C75.0082999,92.2835758 75.2221376,92.7982359 75.2217123,93.3349315 C75.2367759,93.4653885 75.2367759,93.5971457 75.2217123,93.7276027 C75.1997736,93.855751 75.1625919,93.9808167 75.1109589,94.100137 C75.0635742,94.2226593 74.999175,94.3378999 74.9196575,94.4424658 C74.8500981,94.5573016 74.765438,94.6622801 74.6679452,94.754589 C74.2773679,95.1478568 73.7419623,95.3627475 73.1878767,95.3486301 Z" id="Shape" fill-rule="nonzero"></path>
                                <path d="M38.0186301,66.9856849 C36.9064951,66.9856849 36.0049315,66.0841213 36.0049315,64.9719863 L36.0049315,37.9481507 C36.0049315,36.8360156 36.9064951,35.9344521 38.0186301,35.9344521 C39.1307652,35.9344521 40.0323288,36.8360156 40.0323288,37.9481507 L40.0323288,64.9719863 C40.0323288,66.0841213 39.1307652,66.9856849 38.0186301,66.9856849 Z" id="Shape" fill-rule="nonzero"></path>
                                <path d="M108.890753,56.9071233 C107.778618,56.9071233 106.877055,56.0055597 106.877055,54.8934247 L106.877055,37.9481507 C106.877055,36.8360156 107.778618,35.9344521 108.890753,35.9344521 C110.002888,35.9344521 110.904452,36.8360156 110.904452,37.9481507 L110.904452,54.8934247 C110.904452,56.0055597 110.002888,56.9071233 108.890753,56.9071233 Z" id="Shape" fill-rule="nonzero"></path>
                                <path d="M73.1878767,67.9421918 C72.0757417,67.9421918 71.1741781,67.0406282 71.1741781,65.9284932 L71.1741781,47.019863 C71.1741781,45.907728 72.0757417,45.0061644 73.1878767,45.0061644 C74.3000118,45.0061644 75.2015753,45.907728 75.2015753,47.019863 L75.2015753,65.9284932 C75.2015753,67.0406282 74.3000118,67.9421918 73.1878767,67.9421918 Z" id="Shape" fill-rule="nonzero"></path>
                                <path d="M141.150205,142.670548 L5.22554795,142.670548 C4.1134129,142.670548 3.21184932,141.768984 3.21184932,140.656849 L3.21184932,20.3383562 C3.21184932,19.2262211 4.1134129,18.3246575 5.22554795,18.3246575 L24.8389726,18.3246575 C25.9511076,18.3246575 26.8526712,19.2262211 26.8526712,20.3383562 C26.8526712,21.4504912 25.9511076,22.3520548 24.8389726,22.3520548 L7.23924658,22.3520548 L7.23924658,138.643151 L139.136507,138.643151 L139.136507,22.3520548 L41.6734932,22.3520548 C40.5613581,22.3520548 39.6597945,21.4504912 39.6597945,20.3383562 C39.6597945,19.2262211 40.5613581,18.3246575 41.6734932,18.3246575 L141.150205,18.3246575 C142.262341,18.3246575 143.163904,19.2262211 143.163904,20.3383562 L143.163904,140.656849 C143.163904,141.768984 142.262341,142.670548 141.150205,142.670548 Z" id="Shape" fill-rule="nonzero"></path>
                                <path d="M32.6118493,22.3520548 C32.4813773,22.3668555 32.3496501,22.3668555 32.2191781,22.3520548 C32.092116,22.3256409 31.9674991,22.2885927 31.8466438,22.2413014 C31.7259234,22.1837212 31.608297,22.1198669 31.4942466,22.05 C31.2776692,21.9004409 31.0900386,21.7128103 30.9404795,21.4962329 C30.8699358,21.3842608 30.8092949,21.2663481 30.7592466,21.1438356 C30.7086154,21.0232586 30.6681994,20.8986427 30.6384247,20.7713014 C30.6285176,20.6405984 30.6285176,20.5093331 30.6384247,20.3786301 C30.621766,19.8309574 30.8290014,19.3001439 31.2123288,18.9086301 C31.3060389,18.8166933 31.4070554,18.7325129 31.5143836,18.6569178 C31.6263556,18.5863741 31.7442684,18.5257333 31.8667808,18.4756849 C31.9859656,18.4236801 32.1110771,18.3864848 32.2393151,18.3649315 C32.8373279,18.2459194 33.4570597,18.4042772 33.9246723,18.7955849 C34.392285,19.1868925 34.6574124,19.7690026 34.6456849,20.3786301 C34.6606599,20.5090922 34.6606599,20.6408393 34.6456849,20.7713014 C34.6241317,20.8995393 34.5869364,21.0246508 34.5349315,21.1438356 C34.4853619,21.2684707 34.4211437,21.3867674 34.3436301,21.4962329 C34.2745464,21.6055771 34.1934988,21.7068865 34.1019863,21.7982877 C33.7022388,22.1794261 33.1634867,22.379638 32.6118493,22.3520548 Z" id="Shape" fill-rule="nonzero"></path>
                                <path d="M143.103493,39.750411 L3.26219178,39.750411 C2.15005674,39.750411 1.24849315,38.8488474 1.24849315,37.7367123 C1.24849315,36.6245773 2.15005674,35.7230137 3.26219178,35.7230137 L143.113562,35.7230137 C144.225697,35.7230137 145.12726,36.6245773 145.12726,37.7367123 C145.12726,38.8488474 144.225697,39.750411 143.113562,39.750411 L143.103493,39.750411 Z" id="Shape" fill-rule="nonzero"></path>
                                <path d="M115.676918,67.9623288 L3.26219178,67.9623288 C2.15005674,67.9623288 1.24849315,67.0607652 1.24849315,65.9486301 C1.24849315,64.8364951 2.15005674,63.9349315 3.26219178,63.9349315 L115.676918,63.9349315 C116.789053,63.9349315 117.690616,64.8364951 117.690616,65.9486301 C117.690616,67.0607652 116.789053,67.9623288 115.676918,67.9623288 Z" id="Shape" fill-rule="nonzero"></path>
                                <path d="M143.103493,67.9623288 L130.316507,67.9623288 C129.204372,67.9623288 128.302808,67.0607652 128.302808,65.9486301 C128.302808,64.8364951 129.204372,63.9349315 130.316507,63.9349315 L143.103493,63.9349315 C144.215628,63.9349315 145.117192,64.8364951 145.117192,65.9486301 C145.117192,67.0607652 144.215628,67.9623288 143.103493,67.9623288 Z" id="Shape" fill-rule="nonzero"></path>
                                <path d="M123.842466,67.9623288 C123.712009,67.9773924 123.580252,67.9773924 123.449795,67.9623288 C123.323034,67.9347288 123.198511,67.8977082 123.07726,67.8515753 C122.954677,67.797723 122.836802,67.7337338 122.724863,67.660274 C122.615001,67.588039 122.51367,67.503597 122.422808,67.4085616 C122.034656,67.0228454 121.820192,66.4957735 121.828767,65.9486301 C121.818623,65.8179363 121.818623,65.6866528 121.828767,65.5559589 C121.858628,65.4253671 121.899035,65.2974132 121.949589,65.1733562 C121.999649,65.0540602 122.060303,64.9394921 122.130822,64.8310274 C122.206223,64.7204068 122.290399,64.6160293 122.382534,64.5189041 C122.476178,64.4299287 122.577228,64.3490888 122.684589,64.2772603 C122.794299,64.2001404 122.912548,64.135948 123.036986,64.0859589 C123.156672,64.0353388 123.281619,63.9981924 123.409521,63.9752055 C123.668889,63.9249443 123.935495,63.9249443 124.194863,63.9752055 C124.326356,63.9967404 124.454802,64.0339222 124.577466,64.0859589 C124.699712,64.1339285 124.814875,64.1982842 124.919795,64.2772603 C125.032144,64.3464628 125.136779,64.4274705 125.231918,64.5189041 C125.32115,64.6185331 125.405167,64.7227135 125.48363,64.8310274 C125.554149,64.9394921 125.614803,65.0540602 125.664863,65.1733562 C125.716324,65.297084 125.756755,65.4251158 125.785685,65.5559589 C125.79591,65.6866496 125.79591,65.8179394 125.785685,65.9486301 C125.786109,66.4803926 125.576181,66.9907364 125.201712,67.3682877 C125.109487,67.4658705 125.004495,67.550541 124.889589,67.62 C124.78241,67.6954473 124.667685,67.7595584 124.54726,67.8113014 C124.423066,67.8589072 124.295078,67.8959563 124.164658,67.9220548 C124.058891,67.9462961 123.950945,67.9597893 123.842466,67.9623288 Z" id="Shape" fill-rule="nonzero"></path>
                                <path d="M40.9586301,127.567808 L5.82965753,127.567808 C4.71752249,127.567808 3.8159589,126.666245 3.8159589,125.55411 C3.8159589,124.441975 4.71752249,123.540411 5.82965753,123.540411 L40.9686986,123.540411 C42.0808337,123.540411 42.9823973,124.441975 42.9823973,125.55411 C42.9823973,126.666245 42.0808337,127.567808 40.9686986,127.567808 L40.9586301,127.567808 Z" id="Shape" fill-rule="nonzero"></path>
                                <path d="M140.636712,127.567808 L105.497671,127.567808 C104.385536,127.567808 103.483973,126.666245 103.483973,125.55411 C103.483973,124.441975 104.385536,123.540411 105.497671,123.540411 L140.636712,123.540411 C141.748847,123.540411 142.650411,124.441975 142.650411,125.55411 C142.650411,126.666245 141.748847,127.567808 140.636712,127.567808 Z" id="Shape" fill-rule="nonzero"></path>
                                <path d="M97.4428767,140.354795 L48.9228082,140.354795 C47.8106732,140.354795 46.9091096,139.453231 46.9091096,138.341096 L46.9091096,84.1222603 C46.9091096,83.0101252 47.8106732,82.1085616 48.9228082,82.1085616 L97.4428767,82.1085616 C98.5550118,82.1085616 99.4565753,83.0101252 99.4565753,84.1222603 L99.4565753,138.341096 C99.4565753,139.453231 98.5550118,140.354795 97.4428767,140.354795 Z M50.9365068,136.327397 L95.4291781,136.327397 L95.4291781,86.1359589 L50.9365068,86.1359589 L50.9365068,136.327397 Z" id="Shape" fill-rule="nonzero"></path>
                                <path d="M144.351986,143.476027 L2.01369863,143.476027 C0.901563586,143.476027 1.36197262e-16,142.574464 0,141.462329 C-1.36197262e-16,140.350194 0.901563586,139.44863 2.01369863,139.44863 L144.351986,139.44863 C145.464121,139.44863 146.365685,140.350194 146.365685,141.462329 C146.365685,142.574464 145.464121,143.476027 144.351986,143.476027 Z" id="Shape" fill-rule="nonzero"></path>
                            </g>
                        </g>
                        <g id="Group-4-Copy-6" transform="translate(48.000000, 169.000000)">
                            <circle id="Oval-Copy-26" cx="5.76923077" cy="5.76923077" r="5.76923077"></circle>
                            <circle id="Oval-Copy-33" cx="25" cy="5.76923077" r="5.76923077"></circle>
                            <circle id="Oval-Copy-34" cx="44.2307692" cy="5.76923077" r="5.76923077"></circle>
                        </g>
                    </g>
                </g>
            </g>
        </g>
    </g>
</svg>