<?xml version="1.0" encoding="UTF-8"?>
<svg width="115px" height="176px" viewBox="0 0 115 176" version="1.1" xmlns="http://www.w3.org/2000/svg" xmlns:xlink="http://www.w3.org/1999/xlink">
    <!-- Generator: sketchtool 50.2 (55047) - http://www.bohemiancoding.com/sketch -->
    <title>21EB4053-8616-4FE7-A133-6EE17ECE5EB1</title>
    <desc>Created with sketchtool.</desc>
    <defs></defs>
    <g id="MAKERS-ARK" stroke="none" stroke-width="1" fill="none" fill-rule="evenodd">
        <g id="MAKERS-ARK_DESKTOP" transform="translate(-268.000000, -3928.000000)">
            <g id="OUR-SERVICES" transform="translate(171.000000, 3737.000000)">
                <g id="Membership" transform="translate(8.000000, 189.000000)">
                    <g id="Group" transform="translate(73.000000, 0.000000)">
                        <g id="Icon1">
                            <g id="icon1" transform="translate(16.500000, 1.500000)">
                                <g id="_Group_3" transform="translate(41.482552, 0.000000)" fill="#E52839" fill-rule="nonzero">
                                    <path d="M15.4598389,30.3530869 C9.51424892,30.3530644 4.15487326,26.7693482 1.88339371,21.2747671 C-0.388085848,15.780186 0.876240182,9.45820779 5.08620205,5.25984361 C9.29616392,1.06147943 15.6216059,-0.185401881 21.1098999,2.10122647 C26.598194,4.38785481 30.1671121,9.75709617 30.150733,15.7026636 C30.1173436,23.7957897 23.5530263,30.3420235 15.4598389,30.3530869 Z M15.4598389,5.05884782 C9.58142179,5.05884782 4.81602313,9.82424648 4.81602313,15.7026636 C4.81602313,21.5810808 9.58142179,26.3464795 15.4598389,26.3464795 C21.3382561,26.3464795 26.1036548,21.5810808 26.1036548,15.7026636 C26.0925196,9.82886501 21.3336376,5.06998301 15.4598389,5.05884782 Z" id="Shape"></path>
                                </g>
                                <g id="_Group_4" transform="translate(26.306009, 27.317778)" fill="#E52839" fill-rule="nonzero">
                                    <path d="M43.6072682,115.665497 L33.0848648,115.665497 C31.967295,115.665497 31.0613256,114.759527 31.0613256,113.641957 L31.0613256,72.5438778 C31.0613256,72.0297957 30.6445797,71.6130498 30.1304976,71.6130498 C29.6164155,71.6130498 29.1996696,72.0297957 29.1996696,72.5438778 L29.1996696,113.641957 C29.1996696,114.759527 28.2937003,115.665497 27.1761305,115.665497 L18.151146,115.665497 C17.0335762,115.665497 16.1276069,114.759527 16.1276069,113.641957 L16.1276069,30.9702664 C16.1276069,30.4561843 15.710861,30.0394384 15.1967789,30.0394384 C14.6826967,30.0394384 14.2659509,30.4561843 14.2659509,30.9702664 L14.2659509,68.6688003 C14.2682636,69.2385734 14.0302571,69.7829188 13.610403,70.1681061 C13.1905488,70.5532934 12.6277583,70.7436242 12.0602932,70.6923395 C5.70297728,70.2343655 0.760660309,64.9751769 0.698120999,58.6016932 L0.698120999,29.9686145 C0.696733432,24.4617704 2.30379464,19.074423 5.32190791,14.4683048 C10.9797753,6.03947828 20.4644684,0.982733897 30.616147,0.982733897 C40.7678256,0.982733897 50.2525188,6.03947828 55.9103861,14.4683048 C58.9143521,19.0648635 60.5140528,24.4370451 60.5139376,29.9281437 L60.5139376,58.6016932 C60.4063832,64.7047895 55.850659,69.8111585 49.799298,70.6113979 C49.2171132,70.6907441 48.6291876,70.5131221 48.1883244,70.1246964 C47.7474612,69.7362707 47.4971989,69.175401 47.502581,68.5878588 L47.502581,30.9702664 C47.502581,30.4561843 47.0858352,30.0394384 46.571753,30.0394384 C46.0576709,30.0394384 45.640925,30.4561843 45.640925,30.9702664 L45.640925,113.641957 C45.6409318,114.180391 45.4263498,114.696625 45.0446715,115.076405 C44.6629932,115.456184 44.145695,115.668189 43.6072682,115.665497 Z M35.1084039,111.618418 L41.5837291,111.618418 L41.5837291,30.9702664 C41.5837291,28.2210447 43.8124136,25.9923601 46.5616353,25.9923601 C49.3108571,25.9923601 51.5395416,28.2210447 51.5395416,30.9702664 L51.5395416,65.9572579 C54.5193358,64.7145374 56.4756331,61.8198535 56.5174479,58.5915755 L56.5174479,29.9686145 C56.5307323,25.2649901 55.1736482,20.659342 52.6120173,16.7144332 C47.7052238,9.40869193 39.4825074,5.0261623 30.681912,5.0261623 C21.8813167,5.0261623 13.6586003,9.40869193 8.75180673,16.7144332 C6.16363989,20.6615907 4.78511669,25.2789401 4.78567004,29.9989676 L4.78567004,58.6016932 C4.85771458,62.0152439 7.03854545,65.0264836 10.2593434,66.1596118 L10.2593434,30.9702664 C10.2593434,28.2210447 12.4880279,25.9923601 15.2372496,25.9923601 C17.9864714,25.9923601 20.2151559,28.2210447 20.2151559,30.9702664 L20.2151559,111.618418 L25.1930622,111.618418 L25.1930622,72.5438778 C25.1930622,69.7946561 27.4217467,67.5659715 30.1709684,67.5659715 C32.9201901,67.5659715 35.1488747,69.7946561 35.1488747,72.5438778 L35.1084039,111.618418 Z" id="Shape"></path>
                                </g>
                                <g id="_Group_5" transform="translate(13.153004, 11.129465)" fill="#E52839" fill-rule="nonzero">
                                    <path d="M14.1647739,28.1676647 C7.94409699,28.1610733 2.48501277,24.0226684 0.798467634,18.0349785 C-0.888077505,12.0472886 1.60850688,5.66802048 6.91123493,2.41564599 C12.213963,-0.836728512 19.0318823,-0.170416818 23.6045839,4.04707826 C24.1467896,4.54048542 24.3845787,5.28567573 24.2283784,6.0019432 C24.0721781,6.71821067 23.5457189,7.29673724 22.847313,7.51959755 C22.148907,7.74245785 21.3846587,7.57579411 20.842453,7.08238695 C17.6129302,4.06536532 12.7686189,3.5703191 8.99559757,5.87174198 C5.22257626,8.17316487 3.44568292,12.7069351 4.65017112,16.9591634 C5.85465932,21.2113917 9.7452865,24.1397774 14.1647739,24.1205864 L14.4683048,24.1205864 C15.1912457,24.0970908 15.8718054,24.4610644 16.2536236,25.0754018 C16.6354418,25.6897392 16.6605113,26.461108 16.3193886,27.0989409 C15.9782659,27.7367739 15.3227757,28.1441691 14.5998348,28.1676647 L14.1647739,28.1676647 Z" id="Shape"></path>
                                </g>
                                <path d="M5.05884782,98.2428247 C4.5524958,98.2412691 4.06512701,98.0499317 3.69295891,97.7065868 C1.34106528,95.5771952 -0.000441079178,92.552374 -1.32348898e-23,89.3797233 C-1.36862869e-16,88.2621535 0.905969327,87.3561842 2.02353913,87.3561842 C3.14110893,87.3561842 4.04707826,88.2621535 4.04707826,89.3797233 C4.05363428,91.4226074 4.92484294,93.3672039 6.44497212,94.7319843 C7.0593666,95.2987473 7.26204605,96.1849528 6.95508665,96.9624339 C6.64812726,97.739915 5.89471089,98.2486417 5.05884782,98.2428247 Z" id="Shape" fill="#E52839" fill-rule="nonzero"></path>
                                <path d="M37.8705348,142.983275 L30.484617,142.983275 C29.3670472,142.983275 28.4610778,142.077306 28.4610778,140.959736 L28.4610778,104.869915 C28.4945401,104.583523 28.360568,104.303364 28.1166335,104.149623 C27.8726991,103.995882 27.5621553,103.995882 27.3182209,104.149623 C27.0742864,104.303364 26.9403143,104.583523 26.9737766,104.869915 L26.9737766,140.959736 C26.9737766,142.077306 26.0678073,142.983275 24.9502375,142.983275 L16.4817262,142.983275 C15.3641564,142.983275 14.4581871,142.077306 14.4581871,140.959736 L14.4581871,63.4885402 C14.4581871,63.0750393 14.1229784,62.7398307 13.7094776,62.7398307 C12.5919078,62.7398307 11.6859385,61.8338614 11.6859385,60.7162916 C11.6859385,59.5987218 12.5919078,58.6927524 13.7094776,58.6927524 C16.358118,58.6927524 18.5052653,60.8398997 18.5052653,63.4885402 L18.5052653,138.936197 L22.9165806,138.936197 L22.9165806,104.869915 C22.8354893,103.10583 23.7304473,101.43991 25.2461049,100.533623 C26.7617625,99.6273361 28.6528565,99.6273361 30.1685141,100.533623 C31.6841717,101.43991 32.5791297,103.10583 32.4980384,104.869915 L32.4980384,138.936197 L37.8604171,138.936197 C38.9779869,138.936197 39.8839562,139.842166 39.8839562,140.959736 C39.8839562,142.077306 38.9779869,142.983275 37.8604171,142.983275 L37.8705348,142.983275 Z" id="Shape" fill="#E52839" fill-rule="nonzero"></path>
                                <g id="_Group_6" transform="translate(0.000000, 34.400165)" fill="#E52839" fill-rule="nonzero">
                                    <path d="M2.02353913,57.0030973 C0.905969327,57.0030973 1.36862869e-16,56.0971279 7.94093388e-23,54.9795581 L7.94093388e-23,28.157547 C-0.000649305991,22.9699078 1.51507828,17.8952097 4.36072682,13.5577122 C9.64146522,5.56837345 18.6011503,0.787844797 28.1777824,0.849886434 C31.2210453,0.846859361 34.245933,1.32141848 37.1420607,2.25624613 C38.0576441,2.69475568 38.5066025,3.74379741 38.1917259,4.70890689 C37.8768493,5.67401637 36.8956087,6.25644145 35.8975841,6.07061739 C33.4031243,5.2680024 30.7981825,4.86172708 28.1777824,4.8666116 C19.9618703,4.81221883 12.2756722,8.91609278 7.75015486,15.7734875 C5.33499224,19.4522748 4.04785178,23.75681 4.04707826,28.157547 L4.04707826,54.9795581 C4.04707826,56.0971279 3.14110893,57.0030973 2.02353913,57.0030973 Z" id="Shape"></path>
                                </g>
                                <path d="M9.73322321,101.976254 C9.46606333,101.977591 9.20128328,101.92601 8.95416064,101.824489 C8.70968335,101.722784 8.4891336,101.571156 8.30662812,101.37931 C8.22577973,101.285534 8.15459563,101.183842 8.09415651,101.075779 C8.02343145,100.966703 7.96248803,100.851588 7.91203799,100.731778 C7.85983779,100.608483 7.82247751,100.47942 7.80074334,100.347305 C7.78569522,100.216206 7.78569522,100.083815 7.80074334,99.9527153 C7.80300241,99.4169055 8.01767909,98.9038646 8.39768738,98.5261202 C8.87408252,98.0487252 9.55700871,97.8400533 10.2188726,97.9696469 C10.3465556,97.9961899 10.4717814,98.0334192 10.5932273,98.0809416 C10.7176433,98.1325056 10.836328,98.1969345 10.9473467,98.2731778 C11.0599223,98.3427885 11.1621075,98.4279428 11.2508776,98.5261202 C11.348958,98.6149833 11.4341002,98.717154 11.5038199,98.829651 C11.5799383,98.9407462 11.6443599,99.0594176 11.6960562,99.1837704 C11.7435336,99.3052317 11.7807617,99.4304537 11.8073508,99.5581251 C11.8613477,99.8184143 11.8613477,100.087016 11.8073508,100.347305 C11.7856166,100.47942 11.7482564,100.608483 11.6960562,100.731778 C11.6457834,100.853632 11.5812552,100.969104 11.5038199,101.075779 C11.4341002,101.188277 11.348958,101.290447 11.2508776,101.37931 C10.8511201,101.782362 10.3004452,101.99896 9.73322321,101.976254 Z" id="Shape" fill="#E52839" fill-rule="nonzero"></path>
                                <g id="_Group_7" transform="translate(75.882717, 11.129465)" fill="#E52839" fill-rule="nonzero">
                                    <path d="M10.6944043,28.1676647 L10.2593434,28.1676647 C9.14177358,28.1509011 8.24939379,27.2313423 8.26615734,26.1137725 C8.28292089,24.9962027 9.20247975,24.1038229 10.3200496,24.1205864 L10.6944043,24.1205864 C15.1222429,24.1421939 19.0208354,21.2079064 20.225443,16.9470213 C21.4300506,12.6861362 19.6448657,8.14497094 15.861133,5.84506047 C12.0774003,3.54514999 7.22426614,4.05126815 3.99648978,7.08238695 C3.4542841,7.57398676 2.69100002,7.73898044 1.99415926,7.51521645 C1.29731849,7.29145247 0.772787738,6.7129259 0.61815265,5.99756211 C0.463517561,5.28219831 0.702270889,4.53867807 1.24447656,4.04707826 C5.80736254,-0.181934624 12.6255841,-0.861575983 17.9334899,2.38351488 C23.2413956,5.62860574 25.7445279,12.0070371 24.060426,17.9960503 C22.3763241,23.9850635 16.9156959,28.1240968 10.6944043,28.1271939 L10.6944043,28.1676647 Z" id="Shape"></path>
                                </g>
                                <path d="M108.805699,98.2428247 C107.971686,98.2444384 107.222114,97.7341938 106.917778,96.9576892 C106.613442,96.1811845 106.81669,95.2975003 107.429692,94.7319843 C108.949822,93.3672039 109.82103,91.4226074 109.827586,89.3797233 C109.827586,88.2621535 110.733556,87.3561842 111.851125,87.3561842 C112.968695,87.3561842 113.874664,88.2621535 113.874664,89.3797233 C113.87538,92.5574627 112.529843,95.5867603 110.171588,97.7167045 C109.797892,98.0563705 109.310694,98.2440316 108.805699,98.2428247 Z" id="Shape" fill="#E52839" fill-rule="nonzero"></path>
                                <path d="M97.3929383,142.983275 L88.9345447,142.983275 C87.8169749,142.983275 86.9110056,142.077306 86.9110056,140.959736 L86.9110056,104.869915 C86.9444678,104.583523 86.8104957,104.303364 86.5665613,104.149623 C86.3226268,103.995882 86.0120831,103.995882 85.7681486,104.149623 C85.5242142,104.303364 85.3902421,104.583523 85.4237043,104.869915 L85.4237043,140.959736 C85.4237043,142.077306 84.517735,142.983275 83.4001652,142.983275 L76.0142474,142.983275 C74.8966776,142.983275 73.9907082,142.077306 73.9907082,140.959736 C73.9907082,139.842166 74.8966776,138.936197 76.0142474,138.936197 L81.3766261,138.936197 L81.3766261,104.869915 C81.2955347,103.10583 82.1904927,101.43991 83.7061503,100.533623 C85.2218079,99.6273361 87.112902,99.6273361 88.6285596,100.533623 C90.1442172,101.43991 91.0391751,103.10583 90.9580838,104.869915 L90.9580838,138.936197 L95.3693991,138.936197 L95.3693991,63.4885402 C95.3667121,62.2148661 95.8707946,60.9924378 96.7704707,60.0908637 C97.6701467,59.1892896 98.8915099,58.6826319 100.165187,58.6826347 C101.282757,58.6826347 102.188726,59.5886041 102.188726,60.7061739 C102.188726,61.8237437 101.282757,62.729713 100.165187,62.729713 C99.751686,62.729713 99.4164774,63.0649216 99.4164774,63.4784225 L99.4164774,140.949618 C99.4191696,141.488045 99.2071649,142.005343 98.8273856,142.387021 C98.4476062,142.7687 97.9313718,142.983282 97.3929383,142.983275 Z" id="Shape" fill="#E52839" fill-rule="nonzero"></path>
                                <g id="_Group_8" transform="translate(74.870948, 34.400165)" fill="#E52839" fill-rule="nonzero">
                                    <path d="M36.9801776,57.0030973 C35.8626078,57.0030973 34.9566384,56.0971279 34.9566384,54.9795581 L34.9566384,28.157547 C34.9538933,23.760255 33.6668355,19.4595125 31.2535618,15.7836052 C26.7233492,8.93391947 19.0379716,4.8380966 10.8259343,4.89696469 C8.21052989,4.88332697 5.60912197,5.27934183 3.11625026,6.07061739 C2.42764904,6.29292174 1.67275732,6.13097505 1.1359355,5.64578107 C0.599113687,5.16058709 0.361917788,4.42585833 0.513697208,3.71836001 C0.665476629,3.0108617 1.18317246,2.43807965 1.87177369,2.21577535 C4.76790144,1.2809477 7.79278907,0.806388578 10.836052,0.809415651 C20.420436,0.756321882 29.3817626,5.55295378 34.6531076,13.5577122 C37.4968668,17.8923295 39.0125119,22.9632348 39.0138344,28.1474293 L39.0138344,54.9795581 C39.0138411,55.5179917 38.7992591,56.034226 38.4175808,56.4140054 C38.0359026,56.7937848 37.5186044,57.0057894 36.9801776,57.0030973 Z" id="Shape"></path>
                                </g>
                                <path d="M104.141441,101.976254 C103.32331,101.977958 102.584647,101.486847 102.269668,100.731778 C102.168146,100.484655 102.116566,100.219875 102.117902,99.9527153 C102.103284,99.8215914 102.103284,99.689249 102.117902,99.5581251 C102.141227,99.4263756 102.178536,99.2974894 102.229197,99.1736527 C102.279788,99.0539097 102.340725,98.9388065 102.411315,98.829651 C102.487453,98.7219312 102.572033,98.6204345 102.664258,98.5261202 C102.758782,98.43008 102.864021,98.3452101 102.977906,98.2731778 C103.086636,98.1990093 103.201759,98.1346762 103.321908,98.0809416 C103.446828,98.0334557 103.575411,97.9962342 103.70638,97.9696469 C104.368244,97.8400533 105.05117,98.0487252 105.527566,98.5261202 C105.622579,98.6178789 105.707387,98.719648 105.780508,98.829651 C105.851466,98.9385901 105.912421,99.0537268 105.962626,99.1736527 C106.012911,99.298502 106.053502,99.4270398 106.084039,99.5581251 C106.094273,99.6894561 106.094273,99.8213843 106.084039,99.9527153 C106.085375,100.219875 106.033795,100.484655 105.932273,100.731778 C105.830568,100.976255 105.678941,101.196805 105.487095,101.37931 C105.129398,101.740181 104.64903,101.953276 104.141441,101.976254 Z" id="Shape" fill="#E52839" fill-rule="nonzero"></path>
                                <g id="_Group_9" opacity="0.4" transform="translate(43.506091, 2.023539)" fill="#E52839" fill-rule="nonzero">
                                    <path d="M0.758827173,13.6892422 C0.734247426,8.55623036 3.80738154,3.91496515 8.54262953,1.93359156 C13.2778775,-0.0477820297 18.7406115,1.0218131 22.3789412,4.64272065 C26.0172709,8.26362821 27.1130747,13.7211652 25.154453,18.4658692 C23.1958313,23.2105732 18.5693705,26.3059498 13.4362998,26.3060087 C6.46064964,26.3005546 0.797764089,20.6647858 0.758827173,13.6892422 Z" id="Shape"></path>
                                </g>
                                <path d="M111.851125,146.706587 L2.02353913,146.706587 C0.905969327,146.706587 1.36862828e-16,145.800617 0,144.683048 C-1.36862828e-16,143.565478 0.905969327,142.659509 2.02353913,142.659509 L111.851125,142.659509 C112.968695,142.659509 113.874664,143.565478 113.874664,144.683048 C113.874664,145.800617 112.968695,146.706587 111.851125,146.706587 Z" id="Shape" fill="#E52A3A" fill-rule="nonzero"></path>
                                <g id="_Group_10" opacity="0.4" transform="translate(28.329548, 29.341317)" fill="#E52839" fill-rule="nonzero">
                                    <path d="M44.5178608,25.9923601 C42.8862089,25.9923601 41.5634937,27.3150753 41.5634937,28.9467272 L41.5634937,111.618418 L31.0613256,111.618418 L31.0613256,70.5203386 C31.0613256,68.8886867 29.7386104,67.5659715 28.1069585,67.5659715 C26.4753066,67.5659715 25.1525914,68.8886867 25.1525914,70.5203386 L25.1525914,111.618418 L16.1276069,111.618418 L16.1276069,28.9467272 C16.1276069,27.3150753 14.8048916,25.9923601 13.1732397,25.9923601 C11.5415878,25.9923601 10.2188726,27.3150753 10.2188726,28.9467272 L10.2188726,66.6452612 C4.90385946,66.2474785 0.772349824,61.8569263 0.698120999,56.5275656 L0.698120999,27.9450754 C0.699639216,22.8328477 2.19416078,17.8323543 4.99814165,13.5577122 C10.2786675,5.67953598 19.138784,0.951939371 28.622961,0.951939371 C38.107138,0.951939371 46.9672545,5.67953598 52.2477803,13.5577122 C55.0394997,17.8256787 56.5267423,22.8147973 56.5275656,27.9147223 L56.5275656,56.578154 C56.4340482,61.6969389 52.584594,65.9649998 47.502581,66.584555 L47.502581,28.9467272 C47.5026227,28.1578929 47.1871967,27.4018013 46.6265632,26.8468691 C46.0659297,26.2919369 45.3066536,25.9842556 44.5178608,25.9923601 Z" id="Shape"></path>
                                </g>
                            </g>
                        </g>
                        <g id="Group-4-Copy" transform="translate(49.000000, 166.000000)" fill="#E52839">
                            <circle id="Oval-Copy-26" cx="6" cy="6" r="6"></circle>
                            <circle id="Oval-Copy-33" opacity="0.300000012" cx="25" cy="6" r="6"></circle>
                            <circle id="Oval-Copy-34" opacity="0.300000012" cx="44" cy="6" r="6"></circle>
                        </g>
                    </g>
                </g>
            </g>
        </g>
    </g>
</svg>