<?xml version="1.0" encoding="UTF-8"?>
<svg width="54px" height="54px" viewBox="0 0 54 54" version="1.1" xmlns="http://www.w3.org/2000/svg" xmlns:xlink="http://www.w3.org/1999/xlink">
    <!-- Generator: sketchtool 50.2 (55047) - http://www.bohemiancoding.com/sketch -->
    <title>100DA371-2934-4B5A-B823-F809D3459D38</title>
    <desc>Created with sketchtool.</desc>
    <defs></defs>
    <g id="MAKERS-ARK" stroke="none" stroke-width="1" fill="none" fill-rule="evenodd" opacity="0.879551004">
        <g id="MAKERS-ARK_DESKTOP" transform="translate(-1285.000000, -11871.000000)" fill="#E52839">
            <g id="FOOTER" transform="translate(0.000000, 11804.000000)">
                <g id="Social" transform="translate(998.000000, 22.000000)">
                    <path d="M314,99 C299.088312,99 287,86.9116882 287,72 C287,57.0883118 299.088312,45 314,45 C328.911688,45 341,57.0883118 341,72 C341,86.9116882 328.911688,99 314,99 Z M308.770965,68.1253492 L304.513913,68.1253492 L304.513913,81.1292002 L308.770965,81.1292002 L308.770965,68.1253492 Z M309.051345,64.1027335 C309.023715,62.8277142 308.12689,61.8565832 306.670579,61.8565832 C305.214268,61.8565832 304.262183,62.8277142 304.262183,64.1027335 C304.262183,65.3513428 305.186128,66.3504374 306.615319,66.3504374 L306.642524,66.3504374 C308.12689,66.3504374 309.051345,65.3513428 309.051345,64.1027335 Z M324.123522,73.6731895 C324.123522,69.6789689 322.023391,67.8199936 319.222055,67.8199936 C316.96184,67.8199936 315.949904,69.0821532 315.384893,69.9675809 L315.384893,68.1256945 L311.127331,68.1256945 C311.183441,69.3459086 311.127331,81.1295455 311.127331,81.1295455 L315.384893,81.1295455 L315.384893,73.8671222 C315.384893,73.47848 315.412523,73.0907871 315.525083,72.812532 C315.832753,72.0361105 316.533279,71.2322433 317.709379,71.2322433 C319.25045,71.2322433 319.86647,72.4246665 319.86647,74.1721326 L319.86647,81.1292002 L324.123352,81.1292002 L324.123522,73.6731895 Z" id="LinkedIn"></path>
                </g>
            </g>
        </g>
    </g>
</svg>