<?xml version="1.0" encoding="UTF-8"?>
<svg width="200px" height="157px" viewBox="0 0 200 157" version="1.1" xmlns="http://www.w3.org/2000/svg" xmlns:xlink="http://www.w3.org/1999/xlink">
    <!-- Generator: sketchtool 50.2 (55047) - http://www.bohemiancoding.com/sketch -->
    <title>918E0FE7-FA0E-4671-905E-EF732768F072</title>
    <desc>Created with sketchtool.</desc>
    <defs></defs>
    <g id="Symbols" stroke="none" stroke-width="1" fill="none" fill-rule="evenodd">
        <g id="logo-/-MAKERARK" fill-rule="nonzero">
            <g id="Maker-Ark" transform="translate(0.000000, 9.000000)">
                <polygon id="Shape" fill="#EA1D37" points="98 35.9052758 98 21.17506 79 0 79 35.1079137 88.8958333 45 97.6221591 36.2769784"></polygon>
                <polygon id="Shape" fill="#EA1D37" points="76 50.7818182 76 0 52 32.6242424 52 82 76 58.5515152"></polygon>
                <polygon id="Shape" fill="#EA1D37" points="111.098169 45 121 35.1079137 121 0 102 21.17506 102 35.9052758 102.371843 36.2769784"></polygon>
                <polygon id="Shape" fill="#EA1D37" points="148 32.6218314 124 0 124 50.7780652 124 58.5532481 148 82"></polygon>
                <polygon id="Shape" fill="#F9A721" points="148 85 99.9969362 38 52 85 75.6890279 85 124.304845 85"></polygon>
                <path d="M21.9272471,114 L18.3641465,114 C17.1312397,114 16.9524683,114.803828 16.6935578,115.208764 L11.5708302,124.165701 L6.48508968,115.208764 C6.18919205,114.773609 6.04124323,114 4.77751378,114 L1.07879343,114 C0.228087755,114 0,114.398892 0,115.057668 L0,136.936288 C0,137.776379 0.406859238,137.993956 1.07879343,137.993956 L4.77751378,137.993956 C5.44328345,137.993956 5.85630722,137.776379 5.85630722,136.936288 L5.85630722,124.600856 L9.60434384,130.97104 C9.78927985,131.261143 10.0851775,131.732561 10.6461501,131.732561 L12.4955102,131.732561 C12.9687737,131.679279 13.3797248,131.388548 13.5804682,130.964996 L17.2791886,124.600856 L17.2791886,136.942332 C17.2791886,137.782423 17.6860478,138 18.357982,138 L21.9210826,138 C22.5868523,138 22.999876,137.782423 22.999876,136.942332 L22.999876,115.063712 C23.0060406,114.398892 22.7841173,114 21.9272471,114 Z" id="Shape" fill="#FFFFFF"></path>
                <path d="M37.8157603,115.134462 C37.4860206,114.371672 37.1196431,114.002385 36.3075065,114.002385 L32.7780704,114.002385 C32.0632903,113.961878 31.4244207,114.441406 31.2698166,115.134462 L23.0995996,136.976893 C22.9164109,137.412773 22.9164109,138 23.7102287,138 L27.5632981,138 C28.3754348,138 28.6685368,137.78206 28.9616387,136.904246 L34.5183633,120.855387 L40.014025,136.904246 C40.3071269,137.78206 40.624654,138 41.4123655,138 L45.2776476,138 C46.0897842,138 46.0897842,137.394611 45.8882766,136.976893 L37.8157603,115.134462 Z" id="Shape" fill="#FFFFFF"></path>
                <path d="M148.789588,115.134462 C148.460024,114.371672 148.093841,114.002385 147.282135,114.002385 L143.754572,114.002385 C143.040171,113.961878 142.401641,114.441406 142.247119,115.134462 L134.099547,136.976893 C133.916455,137.412773 133.916455,138 134.709852,138 L138.573082,138 C139.384788,138 139.677735,137.78206 139.970681,136.904246 L145.524457,120.855387 L151.017202,136.904246 C151.310148,137.78206 151.627507,138 152.4148,138 L156.278031,138 C157.089737,138 157.089737,137.394611 156.888336,136.976893 L148.789588,115.134462 Z" id="Shape" fill="#FFFFFF"></path>
                <path d="M66.421492,114 L61.3995099,114 C60.5470701,114 60.2814548,114.072654 59.5463799,114.877899 L51.8311822,123.190697 L51.8311822,115.059534 C51.8311822,114.217961 51.4234936,114 50.7872524,114 L47.0809925,114 C46.3768031,114 46,114.217961 46,115.059534 L46,136.940414 C46,137.781987 46.370626,137.999948 47.0809925,137.999948 L50.7872524,137.999948 C51.4049623,137.999948 51.8311822,137.781987 51.8311822,136.940414 L51.8311822,130.450015 L54.1352405,128.07666 C56.1427979,131.358186 59.4599005,136.831434 59.4599005,136.831434 C59.7861157,137.547022 60.513405,138.005623 61.3130305,137.999948 L65.8531988,137.999948 C66.5573882,137.999948 66.7118157,137.309738 66.4091378,136.831434 L58.378908,123.917234 L66.7488783,115.017152 C67.1256814,114.696265 67.1256814,114 66.421492,114 Z" id="Shape" fill="#FFFFFF"></path>
                <path d="M84.9844847,132.908174 L73.6418233,132.908174 L73.6418233,128.064581 L83.1668261,128.064581 C83.9871331,128.064581 84.1995867,127.664985 84.1995867,127.005045 L84.1995867,124.159435 C84.1995867,123.50555 83.9871331,123.099899 83.1668261,123.099899 L73.6418233,123.099899 L73.6418233,119.146317 L84.3766313,119.146317 C85.1910368,119.146317 85.4093919,118.74672 85.4093919,118.086781 L85.4093919,115.059536 C85.4093919,114.405651 85.1969383,114 84.3766313,114 L69.0327605,114 C68.2183551,114 68,114.399596 68,115.059536 L68,136.940464 C68,137.594349 68.2124536,138 69.0327605,138 L84.9667802,138 C85.7870872,138 85.9995408,137.600404 85.9995408,136.940464 L85.9995408,133.949546 C86.0113437,133.30777 85.7988901,132.908174 84.9844847,132.908174 Z" id="Shape" fill="#FFFFFF"></path>
                <path d="M102.64213,129.348589 C105.688835,128.195981 107.715744,125.311021 107.752832,122.074376 C107.839597,119.95749 107.072646,117.893617 105.621846,116.339872 C104.077034,114.806225 102.312407,114 98.2946752,114 L89.0319099,114 C88.1831793,114 88,114.400082 88,115.060823 L88,136.931957 C88,137.774553 88.3663585,137.992779 89.0319099,137.992779 L92.6954954,137.992779 C93.3549408,137.992779 93.7640412,137.774553 93.7640412,136.931957 L93.7640412,119.116196 L98.6488218,119.116196 C100.559992,119.116196 102.031532,120.328565 102.031532,122.219861 C102.031532,123.935363 100.340177,125.178041 98.5389142,125.178041 L97.8061971,125.178041 C96.9574665,125.178041 96.7376514,125.578122 96.7376514,126.238863 L96.7376514,129.160672 C96.7376514,130.185124 96.8109231,130.585206 97.1406458,131.021658 L101.115636,136.901647 C101.453618,137.595127 102.17189,138.025352 102.947429,137.998841 L107.288778,137.998841 C107.984859,137.998841 108.174144,137.344162 107.838315,136.828905 L102.64213,129.348589 Z" id="Shape" fill="#FFFFFF"></path>
                <path d="M120.6647,124.588519 C119.243092,123.985528 114.022664,123.20767 114.022664,120.970574 C114.022664,119.336469 115.975163,118.866136 117.149022,118.866136 C118.236492,118.828028 119.303434,119.175249 120.169202,119.849011 C120.49333,120.151732 120.747255,120.524606 120.91245,120.940425 C121.089413,121.410757 121.195591,121.9233 121.873952,121.9233 L125.354238,121.9233 C126.17417,121.9233 126.386526,121.778582 126.386526,120.904245 C126.386526,116.080318 121.449239,114 116.948463,114 C112.506675,114.180897 108.312636,116.508442 108.312636,121.23589 C108.312636,125.84877 111.615958,127.301978 115.20832,128.47178 C118.2285,129.454655 121.390251,129.490835 121.390251,131.522914 C121.390251,133.554993 119.827072,133.995176 117.909966,133.995176 C116.594536,133.995176 115.137535,133.669561 114.42968,132.789194 C114.047805,132.384337 113.810852,131.859528 113.757218,131.299807 C113.686433,130.389291 113.297113,130.280753 112.477181,130.280753 L109.032288,130.280753 C108.212356,130.280753 108,130.46165 108,131.299807 C108,136.38302 113.120149,139 117.561937,139 C123.036014,139 127,136.527738 127,131.372166 C126.994101,126.439701 123.224775,125.384467 120.6647,124.588519 Z" id="Shape" fill="#FFFFFF"></path>
                <path d="M172.64213,129.348589 C175.688835,128.195981 177.715744,125.311021 177.752832,122.074376 C177.839597,119.95749 177.072646,117.893617 175.621846,116.339872 C174.077034,114.806225 172.312407,114 168.294675,114 L159.03191,114 C158.183179,114 158,114.400082 158,115.060823 L158,136.931957 C158,137.774553 158.366359,137.992779 159.03191,137.992779 L162.695495,137.992779 C163.354941,137.992779 163.764041,137.774553 163.764041,136.931957 L163.764041,119.116196 L168.648822,119.116196 C170.559992,119.116196 172.031532,120.328565 172.031532,122.219861 C172.031532,123.935363 170.340177,125.178041 168.538914,125.178041 L167.806197,125.178041 C166.957467,125.178041 166.737651,125.578122 166.737651,126.238863 L166.737651,129.160672 C166.737651,130.185124 166.810923,130.585206 167.140646,131.021658 L171.115636,136.901647 C171.453618,137.595127 172.17189,138.025352 172.947429,137.998841 L177.288778,137.998841 C177.984859,137.998841 178.174144,137.344162 177.838315,136.828905 L172.64213,129.348589 Z" id="Shape" fill="#FFFFFF"></path>
                <path d="M198.436681,114 L193.410964,114 C192.55789,114 192.292077,114.072654 191.556455,114.877899 L183.835519,123.190697 L183.835519,115.059534 C183.835519,114.217961 183.427527,114 182.790813,114 L179.081796,114 C178.377083,114 178,114.217961 178,115.059534 L178,136.940414 C178,137.781987 178.370902,137.999948 179.081796,137.999948 L182.790813,137.999948 C183.408982,137.999948 183.835519,137.781987 183.835519,136.940414 L183.835519,130.450015 L186.141291,128.07666 C188.150342,131.358186 191.469912,136.831434 191.469912,136.831434 C191.796369,137.547022 192.5242,138.005623 193.32442,137.999948 L197.880328,137.999948 C198.585042,137.999948 198.739584,137.309738 198.436681,136.831434 L190.400478,123.917234 L198.776674,115.017152 C199.116667,114.696265 199.116667,114 198.436681,114 Z" id="Shape" fill="#FFFFFF"></path>
            </g>
        </g>
    </g>
</svg>