<?xml version="1.0" encoding="UTF-8"?>
<svg width="1063px" height="177px" viewBox="0 0 1063 177" version="1.1" xmlns="http://www.w3.org/2000/svg" xmlns:xlink="http://www.w3.org/1999/xlink">
    <!-- Generator: sketchtool 50.2 (55047) - http://www.bohemiancoding.com/sketch -->
    <title>03E8981E-731A-4639-929D-3944A68EC780</title>
    <desc>Created with sketchtool.</desc>
    <defs></defs>
    <g id="Symbols" stroke="none" stroke-width="1" fill="none" fill-rule="evenodd">
        <g id="TheShop" fill="#FFFFFF" fill-rule="nonzero">
            <path d="M98.74,3 L5.51,3 C4.04518531,2.99999035 2.64065578,3.58325116 1.60675348,4.62090628 C0.572851195,5.65856139 -0.00531693176,7.06519496 4.44068881e-16,8.53 L4.44068881e-16,20 C-1.28312617e-15,23.0486118 2.47138818,25.52 5.52,25.52 L36.52,25.52 C38.3701539,25.52 39.87,27.0198461 39.87,28.87 L39.87,135.87 C39.87,138.824723 42.2652766,141.22 45.22,141.22 L58.7,141.22 C61.6547234,141.22 64.05,138.824723 64.05,135.87 L64.05,28.87 C64.05,27.0198461 65.5498461,25.52 67.4,25.52 L98.74,25.52 C100.203077,25.5200024 101.606085,24.9381137 102.639698,23.9026244 C103.673312,22.8671352 104.252655,21.4630747 104.25,20 L104.25,8.53 C104.255317,7.06519496 103.677149,5.65856139 102.643247,4.62090628 C101.609344,3.58325116 100.204815,2.99999035 98.74,3 Z" id="Shape"></path>
            <path d="M338.74,142.3 C326.704904,142.434026 314.815141,139.662264 304.08,134.22 C302.099512,133.237626 301.134627,130.955056 301.81,128.85 L305.81,116.14 C306.189668,114.951827 307.046494,113.975142 308.175127,113.44402 C309.30376,112.912899 310.602469,112.875215 311.76,113.34 C326.71,119.24 342.76,121.81 352.69,117.89 C358.02,115.78 360.18,113.14 362.29,108.13 C364.84,102.08 363.29,98.5 362.46,96.46 C360.7,92.37 357.21,85.56 340.61,79.3 C324.01,73.04 311.82,64 307,53 C303.27,44.44 303.41,34.73 307.42,24.93 C311.61,14.64 320.64,7.32 331,3.31 C344.66,-2 362.83,-0.85 380.48,6.31 C381.808206,6.83184886 382.860336,7.88141781 383.385421,9.20834753 C383.910506,10.5352773 383.861467,12.020595 383.25,13.31 L378.14,24 C377.001865,26.4267924 374.17937,27.5584115 371.68,26.59 C359.59,21.83 347.12,20.74 338.97,23.91 C334.3,25.72 331.72,28.01 329.83,32.65 C328.234049,36.4174039 328.417661,40.7029085 330.33,44.32 C332.61,49.56 339.33,54.52 349.83,58.49 C369.26,65.82 379.74,73.49 384.83,85.32 C388.64,94.19 389.47,106.59 385.16,116.82 C380.75,127.3 371.68,134.18 360.84,138.46 C353.778404,141.111194 346.282018,142.413734 338.74,142.3 Z" id="Shape"></path>
            <rect id="Rectangle-path" transform="translate(921.930000, 97.280000) rotate(90.000000) translate(-921.930000, -97.280000) " x="877.79" y="89.32" width="88.28" height="15.92" rx="7.96"></rect>
            <rect id="Rectangle-path" transform="translate(958.350000, 77.180000) rotate(90.000000) translate(-958.350000, -77.180000) " x="894.11" y="69.22" width="128.48" height="15.92" rx="7.96"></rect>
            <path d="M176.17,46.64 C161.94,38.43 148.38,44.26 139.39,50.75 C139.084289,50.9676721 138.68244,50.9958525 138.34934,50.8229783 C138.016241,50.6501041 137.807976,50.3052818 137.81,49.93 L137.81,9.35 C137.810002,7.66414125 137.139614,6.04747658 135.946594,4.8563327 C134.753574,3.66518882 133.135857,2.9973451 131.45,3 L120,3 C116.492992,3 113.65,5.84299184 113.65,9.35 L113.65,134.86 C113.65,138.367008 116.492992,141.21 120,141.21 L131.46,141.21 C134.967008,141.21 137.81,138.367008 137.81,134.86 L137.81,123.48 C137.81,111.85 137.81,100.23 137.69,88.6 C137.483664,85.137268 137.790311,81.6630537 138.6,78.29 C140.76,70.95 147.75,62.74 156.11,63.66 C156.921974,63.7528685 157.724767,63.9134272 158.51,64.14 C169.68,67.31 173.65,81.64 173.65,88.76 L173.65,135.23 C173.65,138.543708 176.336292,141.23 179.65,141.23 L191.8,141.23 C195.113708,141.23 197.8,138.543708 197.8,135.23 L197.8,88.75 C197.8,78.3 196.67,58.47 176.17,46.64 Z" id="Shape"></path>
            <path d="M460.17,46.64 C445.94,38.43 432.38,44.26 423.39,50.75 C423.084289,50.9676721 422.68244,50.9958525 422.34934,50.8229783 C422.016241,50.6501041 421.807976,50.3052818 421.81,49.93 L421.81,9.35 C421.810002,7.66414125 421.139614,6.04747658 419.946594,4.8563327 C418.753574,3.66518882 417.135857,2.9973451 415.45,3 L404,3 C400.492992,3 397.65,5.84299184 397.65,9.35 L397.65,134.86 C397.65,138.367008 400.492992,141.21 404,141.21 L415.46,141.21 C417.144125,141.21 418.759272,140.540984 419.950128,139.350128 C421.140984,138.159272 421.81,136.544125 421.81,134.86 L421.81,123.48 C421.81,111.85 421.81,100.23 421.69,88.6 C421.483664,85.137268 421.790311,81.6630537 422.6,78.29 C424.76,70.95 431.75,62.74 440.11,63.66 C440.921974,63.7528685 441.724767,63.9134272 442.51,64.14 C453.68,67.31 457.65,81.64 457.65,88.76 L457.65,135.23 C457.65,138.543708 460.336292,141.23 463.65,141.23 L475.8,141.23 C479.113708,141.23 481.8,138.543708 481.8,135.23 L481.8,88.75 C481.8,78.3 480.67,58.47 460.17,46.64 Z" id="Shape"></path>
            <path d="M290.6,83.93 C290.42,76.61 288.69,63.4 279.51,53.3 C274.4,47.67 264.91,41 248.75,41 C216.83,41 205.25,72.1 205.25,93 C205.170678,104.885728 209.389844,116.399646 217.13,125.42 C225.8,135.42 238.07,141.11 252.63,141.98 C253.89,142.053333 255.126667,142.09 256.34,142.09 C265.63,142.09 274.34,139.77 283.1,137.09 C284.246195,136.750523 285.208658,135.966088 285.772374,134.911938 C286.336091,133.857789 286.454086,132.621766 286.1,131.48 L282.47,120 C281.736111,117.666467 279.262809,116.356286 276.92,117.06 C273.47,118.06 269.06,119.36 268.46,119.49 C257.41,121.94 245.31,121.78 236.06,114.44 C233.332546,112.284246 231.076079,109.592141 229.43,106.53 C228.488655,104.728611 228.553432,102.566995 229.600956,100.825206 C230.64848,99.0834169 232.527522,98.012912 234.56,98 L284.16,98 C287.707289,98.0000043 290.584483,95.1272851 290.59,91.58 L290.6,83.93 Z M232.44,79.2 C231.522529,79.1833696 230.674787,78.7069256 230.183572,77.9318529 C229.692357,77.1567803 229.623389,76.1867759 230,75.35 C233,68.37 238.59,62 248.75,62 C255.62,62 260.58,63.76 263.91,67.38 C266.006621,69.8081639 267.509572,72.6908165 268.3,75.8 C268.525574,76.6184544 268.354565,77.4953201 267.837984,78.169037 C267.321402,78.842754 266.518953,79.2354545 265.67,79.23 L232.44,79.2 Z" id="Shape"></path>
            <path d="M536.83,40.48 C505.05,40.48 488.54,63.26 488.54,91.35 C488.54,119.44 507.72,142.22 536.83,142.22 C566.83,142.22 585.12,119.44 585.12,91.35 C585.12,63.26 567.37,40.48 536.83,40.48 Z M536.83,122.3 C522.83,122.3 513.58,108.44 513.58,91.35 C513.58,74.26 521.58,60.4 536.83,60.4 C551.54,60.4 560.08,74.26 560.08,91.35 C560.08,108.44 551.28,122.3 536.83,122.3 Z" id="Shape"></path>
            <circle id="Oval" cx="702.04" cy="132.8" r="9"></circle>
            <circle id="Oval" cx="921.92" cy="21.95" r="9"></circle>
            <path d="M770.19,50.47 C759.923483,50.3327358 750.036345,54.3460051 742.77,61.6 C742.484974,61.8958268 742.048026,61.9872489 741.668309,61.8305053 C741.288592,61.6737617 741.043361,61.3007424 741.05,60.89 L741.05,21.09 C741.112954,16.8031718 737.851565,13.1968699 733.58,12.83 C731.390093,12.7065984 729.245568,13.4877458 727.648071,14.9907168 C726.050573,16.4936878 725.140235,18.5866429 725.13,20.78 L725.13,133.32 C725.067046,137.606828 728.328435,141.21313 732.6,141.58 C734.789907,141.703402 736.934432,140.922254 738.531929,139.419283 C740.129427,137.916312 741.039765,135.823357 741.05,133.63 L741.05,128.9 C741.048115,128.739745 741.146975,128.595534 741.297129,128.539507 C741.447283,128.483479 741.616447,128.52768 741.72,128.65 C749.07,136.73 759.13,141.73 770.19,141.73 C793.28,141.73 807.34,121.3 807.34,96.11 C807.34,70.92 793.68,50.47 770.19,50.47 Z M766,129.23 C752.61,129.23 743.22,118.09 741.06,103.23 C740.743184,101.030921 740.586106,98.8117793 740.59,96.59 C740.587893,94.2487131 740.744921,91.9099901 741.06,89.59 C743.06,74.98 751.53,64.04 766,64.04 C782.08,64.04 791.42,78.63 791.42,96.63 C791.42,114.63 781.8,129.23 766,129.23 Z" id="Shape"></path>
            <path d="M980.63,96.09 C980.63,121.29 994.69,141.71 1017.78,141.71 C1028.84,141.71 1038.9,136.71 1046.25,128.63 C1046.35355,128.50768 1046.52272,128.463479 1046.67287,128.519507 C1046.82302,128.575534 1046.92189,128.719745 1046.92,128.88 L1046.92,133.61 C1046.93023,135.803357 1047.84057,137.896312 1049.43807,139.399283 C1051.03557,140.902254 1053.18009,141.683402 1055.37,141.56 C1059.64156,141.19313 1062.90295,137.586828 1062.84,133.3 L1062.84,20.78 C1062.82977,18.5866429 1061.91943,16.4936878 1060.32193,14.9907168 C1058.72443,13.4877458 1056.57991,12.7065984 1054.39,12.83 C1050.11844,13.1968699 1046.85705,16.8031718 1046.92,21.09 L1046.92,60.89 C1046.92664,61.3007424 1046.68141,61.6737617 1046.30169,61.8305053 C1045.92197,61.9872489 1045.48503,61.8958268 1045.2,61.6 C1037.93365,54.3460051 1028.04652,50.3327358 1017.78,50.47 C994.28,50.47 980.63,70.9 980.63,96.09 Z M996.55,96.64 C996.55,78.64 1005.89,64.05 1021.97,64.05 C1036.45,64.05 1044.9,74.99 1046.91,89.6 C1047.22508,91.9199901 1047.38211,94.2587131 1047.38,96.6 C1047.38389,98.8217793 1047.22682,101.040921 1046.91,103.24 C1044.75,118.06 1035.35,129.24 1021.97,129.24 C1006.17,129.23 996.55,114.64 996.55,96.64 Z" id="Shape"></path>
            <path d="M894.83,131.32 L894.83,131.23 L894.83,61.55 C894.888114,57.2870498 891.647132,53.7014683 887.4,53.33 C885.20511,53.1952752 883.051541,53.9699761 881.445445,55.4720253 C879.83935,56.9740746 878.922362,59.0710135 878.91,61.27 L878.91,108.45 C878.915406,109.930135 878.633529,111.397253 878.08,112.77 C874.19,122.3 867.23,128.63 858.94,128.63 C842.94,128.63 837.83,111.38 837.83,96.52 L837.83,61.52 C837.888114,57.2570498 834.647132,53.6714683 830.4,53.3 C828.20511,53.1652752 826.051541,53.9399761 824.445445,55.4420253 C822.83935,56.9440746 821.922362,59.0410135 821.91,61.24 L821.91,99.52 C821.91,135.52 837.03,141.8 853.28,141.8 C863.65,141.8 871.64,136.28 877.71,129.61 C877.90255,129.398688 878.205466,129.327999 878.471657,129.432257 C878.737849,129.536516 878.912181,129.794127 878.91,130.08 L878.91,133.7 C878.859372,137.930745 882.058392,141.494871 886.27,141.9 C888.437475,142.050527 890.572949,141.312995 892.185554,139.856935 C893.79816,138.400875 894.749176,136.351541 894.82,134.18 C894.82,133.9 894.83,131.61 894.83,131.32 Z" id="Shape"></path>
            <path d="M643.81,40.2 C634.435043,40.091468 625.275033,43.0092046 617.69,48.52 C617.417829,48.7159647 617.058605,48.7422879 616.760775,48.5880921 C616.462945,48.4338962 616.277085,48.1253667 616.28,47.79 C616.28,46.3710918 615.716341,45.0102983 614.713021,44.0069787 C613.709702,43.0036591 612.348908,42.44 610.93,42.44 L597.57,42.44 C594.615277,42.44 592.22,44.8352766 592.22,47.79 L592.22,171.4 C592.22,174.354723 594.615277,176.75 597.57,176.75 L610.93,176.75 C613.884723,176.75 616.28,174.354723 616.28,171.4 L616.28,138.64 C616.279327,137.404894 616.952394,136.267765 618.035492,135.674144 C619.11859,135.080522 620.439238,135.124943 621.48,135.79 C628.176979,139.985629 635.9173,142.216948 643.82,142.23 C669.9,142.23 685.82,119.39 685.82,91.23 C685.82,63.07 670.36,40.2 643.81,40.2 Z M639.41,122.4 C625.41,122.4 616.16,108.54 616.16,91.45 C616.16,74.36 624.16,60.5 639.41,60.5 C654.12,60.5 662.66,74.36 662.66,91.45 C662.66,108.54 653.87,122.4 639.42,122.4 L639.41,122.4 Z" id="Shape"></path>
        </g>
    </g>
</svg>