<?xml version="1.0" encoding="UTF-8"?>
<svg width="188px" height="216px" viewBox="0 0 188 216" version="1.1" xmlns="http://www.w3.org/2000/svg" xmlns:xlink="http://www.w3.org/1999/xlink">
    <!-- Generator: sketchtool 50.2 (55047) - http://www.bohemiancoding.com/sketch -->
    <title>B2F65D0B-9C4F-4131-AC73-AB61BC1315CE</title>
    <desc>Created with sketchtool.</desc>
    <defs></defs>
    <g id="Symbols" stroke="none" stroke-width="1" fill="none" fill-rule="evenodd">
        <g id="ArkLabs" fill="#FFFFFF" fill-rule="nonzero">
            <path d="M28.8197001,209.147914 L19.204097,209.147914 L17.2640393,214.295894 C16.9252158,215.134349 16.1120314,215.683127 15.2085021,215.683074 C14.9471952,215.688423 14.6868767,215.649336 14.4386379,215.567475 C13.3031214,215.128466 12.7229621,213.864468 13.1298689,212.71605 L21.8755255,189.388304 C22.2177258,188.535222 23.0513903,187.982965 23.969556,188.001124 C24.8909925,187.97155 25.7306032,188.527746 26.0635865,189.388304 L34.8092431,212.71605 C35.2161499,213.864468 34.6359906,215.128466 33.5004741,215.567475 C32.387802,215.952607 31.168886,215.396753 30.7289632,214.3036 L28.8197001,209.147914 Z M27.1952868,204.79371 L24.0080492,196.270259 L20.8054144,204.747471 L27.1952868,204.79371 Z" id="Shape"></path>
            <path d="M57.0038637,213.47645 L57.0038637,190.310542 C56.9557762,189.501827 57.359466,188.73307 58.0521964,188.314173 C58.7449268,187.895276 59.6125331,187.895276 60.3052635,188.314173 C60.9979939,188.73307 61.4016836,189.501827 61.3535961,190.310542 L61.3535961,201.63918 L74.1718341,188.769231 C74.5762247,188.353037 75.1315678,188.11824 75.7115624,188.11824 C76.2915569,188.11824 76.8469001,188.353037 77.2512907,188.769231 C78.0803898,189.629183 78.0803898,190.991902 77.2512907,191.851854 L68.5518259,200.521729 L77.3359757,212.081563 C77.7219542,212.524085 77.907123,213.107131 77.8472835,213.691531 C77.787444,214.275931 77.4879655,214.809249 77.0203314,215.164186 C76.6411764,215.507038 76.1453976,215.691767 75.634576,215.680525 C75.0063554,215.674753 74.412395,215.392966 74.0101626,214.909869 L65.4646707,203.704537 L61.3535961,207.850664 L61.3535961,213.47645 C61.4016836,214.285165 60.9979939,215.053923 60.3052635,215.47282 C59.6125331,215.891716 58.7449268,215.891716 58.0521964,215.47282 C57.359466,215.053923 56.9557762,214.285165 57.0038637,213.47645 Z" id="Shape"></path>
            <path d="M92.0000137,212.578115 L92.0000137,189.181011 C91.9979588,188.601958 92.2268414,188.046027 92.6358761,187.636572 C93.0449109,187.227117 93.6002704,186.997999 94.1787292,187.000056 C95.3917889,186.991498 96.3832434,187.966741 96.395938,189.181011 L96.395938,210.327801 L107.120145,210.327801 C108.33192,210.327801 109.314258,211.311149 109.314258,212.524169 C109.314258,213.73719 108.33192,214.720538 107.120145,214.720538 L94.1864279,214.720538 C92.9933414,214.729128 92.0169065,213.77234 92.0000137,212.578115 Z" id="Shape"></path>
            <path d="M126.812001,209.147914 L117.204097,209.147914 L115.264039,214.295894 C114.925216,215.134349 114.112031,215.683127 113.208502,215.683074 C112.947195,215.688423 112.686877,215.649336 112.438638,215.567475 C111.303121,215.128466 110.722962,213.864468 111.129869,212.71605 L119.875526,189.388304 C120.217726,188.535222 121.05139,187.982965 121.969556,188.001124 C122.890992,187.97155 123.730603,188.527746 124.063586,189.388304 L132.809243,212.71605 C133.21615,213.864468 132.635991,215.128466 131.500474,215.567475 C130.387802,215.952607 129.168886,215.396753 128.728963,214.3036 L126.812001,209.147914 Z M125.187588,204.79371 L121.984953,196.316498 L118.782318,204.79371 L125.187588,204.79371 Z" id="Shape"></path>
            <path d="M50.1646905,203.975815 C53.6021289,202.161362 55.3647636,198.237821 54.4398305,194.459559 C53.5148974,190.681296 50.1397996,188.01808 46.2537807,188.000124 L39.1710306,188.000124 C38.5973754,187.993949 38.0450912,188.217751 37.6372688,188.62165 C37.2294464,189.025549 36.9999806,189.575975 37.0000137,190.150254 L37.0000137,213.516531 C36.9979588,214.095585 37.2268414,214.651515 37.6358761,215.060971 C38.0449109,215.470426 38.6002704,215.699544 39.1787292,215.697487 C40.3917889,215.706045 41.3832434,214.730802 41.395938,213.516531 L41.395938,204.954548 L45.7995609,204.954548 L50.5265267,214.587743 C50.8214192,215.147442 51.3483962,215.548018 51.9661726,215.682074 C52.4638858,215.790678 52.984239,215.705242 53.4212159,215.44317 C53.9381743,215.184134 54.3268291,214.724747 54.4969445,214.171667 C54.6670599,213.618588 54.6038379,213.019927 54.3219569,212.514679 L50.1646905,203.975815 Z M41.3882393,192.415981 L46.2537807,192.415981 C48.5051312,192.415981 50.3302113,194.242938 50.3302113,196.496602 C50.3302113,198.750267 48.5051312,200.577224 46.2537807,200.577224 L41.3882393,200.577224 L41.3882393,192.415981 Z" id="Shape"></path>
            <path d="M152.714574,196.014818 C152.714574,190.134716 147.895224,188 144.661795,188 L137.186414,188 C136.005293,188.061543 135.061479,189.006327 135,190.188662 L135,213.493287 C135.061479,214.675622 136.005293,215.620407 137.186414,215.681949 L144.646398,215.681949 C147.887526,215.681949 152.699177,213.547233 152.699177,207.667131 C152.805839,205.506093 152.014425,203.397206 150.512762,201.840975 C152.020042,200.287322 152.81715,198.178116 152.714574,196.014818 Z M148.349444,196.014818 C148.435318,197.011663 148.109837,198.000251 147.448703,198.750646 C146.766426,199.323921 145.906649,199.642583 145.015932,199.652313 L139.388226,199.652313 L139.388226,192.369617 L144.646398,192.369617 C145.508646,192.38503 148.349444,192.693293 148.349444,196.014818 Z M144.661795,211.304625 L139.388226,211.304625 L139.388226,204.006517 L144.992837,204.006517 C145.890925,204.014095 146.758694,204.332695 147.448703,204.908184 C148.109837,205.658579 148.435318,206.647166 148.349444,207.644011 C148.349444,210.98095 145.508646,211.289212 144.661795,211.304625 Z" id="Shape"></path>
            <path d="M164.184912,214.725389 C161.057037,214.63069 158.053266,213.479011 155.662516,211.45781 C154.920659,210.730825 154.881987,209.548063 155.574768,208.774075 C156.267549,208.000086 157.446238,207.909201 158.24926,208.567851 C158.295451,208.606384 161.813731,211.650474 165.947901,210.633208 C167.757082,210.178521 168.973467,209.261441 169.358399,208.036099 C169.6495,207.025425 169.405703,205.935927 168.711713,205.14614 C167.241273,203.450698 165.678449,203.103903 163.692199,202.656923 C161.521182,202.17141 159.073014,201.616538 156.809614,199.173559 C155.189084,197.427545 154.60437,194.957515 155.269885,192.669226 C156.03975,190.072117 158.349342,188.130065 161.498086,187.336289 C167.656999,185.794978 172.276184,190.041291 172.476349,190.226248 C173.032822,190.687869 173.286836,191.420862 173.135486,192.12828 C172.984136,192.835698 172.452513,193.40026 171.755987,193.593254 C171.05946,193.786247 170.313504,193.575677 169.820318,193.046847 C169.697139,192.931249 166.532998,190.072117 162.437321,191.097089 C160.589647,191.559482 159.357864,192.507388 158.980631,193.77897 C158.698918,194.749824 158.947399,195.797448 159.635015,196.537917 C161.074661,198.079228 162.591293,198.441437 164.523652,198.849884 C166.771656,199.35081 169.312207,199.928802 171.614101,202.579857 C173.194976,204.385195 173.730802,206.880513 173.030651,209.176669 C172.561034,210.656328 171.144484,213.299677 166.871738,214.370888 C165.993953,214.598452 165.091623,214.717506 164.184912,214.725389 Z" id="Shape"></path>
            <polygon id="Shape" points="86.1400988 123.038371 52.3122684 69 0 159.790936 49.787114 159.790936"></polygon>
            <polygon id="Shape" points="134.835529 69 101 123.038371 137.360683 159.790936 187.147797 159.790936"></polygon>
            <polygon id="Shape" points="124.983409 54.7550805 92.9955537 0 61 54.7550805 92.9955537 109.517868"></polygon>
        </g>
    </g>
</svg>