<?xml version="1.0" encoding="UTF-8"?>
<svg width="54px" height="54px" viewBox="0 0 54 54" version="1.1" xmlns="http://www.w3.org/2000/svg" xmlns:xlink="http://www.w3.org/1999/xlink">
    <!-- Generator: sketchtool 50.2 (55047) - http://www.bohemiancoding.com/sketch -->
    <title>B11827B1-7F3E-4E48-870C-184E718A5A6A</title>
    <desc>Created with sketchtool.</desc>
    <defs></defs>
    <g id="MAKERS-ARK" stroke="none" stroke-width="1" fill="none" fill-rule="evenodd" opacity="0.879551004">
        <g id="MAKERS-ARK_DESKTOP" transform="translate(-998.000000, -11871.000000)" fill="#E52839">
            <g id="FOOTER" transform="translate(0.000000, 11804.000000)">
                <g id="Social" transform="translate(998.000000, 22.000000)">
                    <path d="M27,99 C12.0883118,99 0,86.9116882 0,72 C0,57.0883118 12.0883118,45 27,45 C41.9116882,45 54,57.0883118 54,72 C54,86.9116882 41.9116882,99 27,99 Z M28.9207311,86.6877057 L28.9207311,71.9982802 L32.9091809,71.9982802 L33.4377366,66.9362228 L28.9207311,66.9362228 L28.9275075,64.4026143 C28.9275075,63.0823518 29.0508936,62.374925 30.9160854,62.374925 L33.4095017,62.374925 L33.4095017,57.3122943 L29.4204873,57.3122943 C24.6290395,57.3122943 22.9425741,59.7679368 22.9425741,63.8975552 L22.9425741,66.9367961 L19.9558956,66.9367961 L19.9558956,71.9988534 L22.9425741,71.9988534 L22.9425741,86.6877057 L28.9207311,86.6877057 Z" id="Facebook"></path>
                </g>
            </g>
        </g>
    </g>
</svg>