<?xml version="1.0" encoding="UTF-8"?>
<svg width="148px" height="180px" viewBox="0 0 148 180" version="1.1" xmlns="http://www.w3.org/2000/svg" xmlns:xlink="http://www.w3.org/1999/xlink">
    <!-- Generator: sketchtool 50.2 (55047) - http://www.bohemiancoding.com/sketch -->
    <title>42EDAC06-7226-4F63-8A33-6C87F646951E</title>
    <desc>Created with sketchtool.</desc>
    <defs></defs>
    <g id="MAKERS-ARK" stroke="none" stroke-width="1" fill="none" fill-rule="evenodd">
        <g id="MAKERS-ARK_DESKTOP" transform="translate(-646.000000, -3927.000000)" fill="#E52839">
            <g id="OUR-SERVICES" transform="translate(171.000000, 3737.000000)">
                <g id="Professional" transform="translate(406.000000, 189.000000)">
                    <g id="Group-2" transform="translate(68.000000, 0.000000)">
                        <g id="Icon2">
                            <g id="icon2" transform="translate(1.500000, 1.500000)">
                                <g id="Group" opacity="0.4" transform="translate(73.500000, 63.913043)" fill-rule="nonzero">
                                    <polygon id="Shape" points="35.5356522 0.213043478 0.92673913 20.0793478 0.92673913 60.4297826 35.5356522 80.1469565 70.1445652 60.4297826 70.1445652 20.0793478"></polygon>
                                </g>
                                <g id="Group" opacity="0.4" transform="translate(73.500000, 83.086957)" fill-rule="nonzero">
                                    <polygon id="Shape" points="0.92673913 41.2558696 35.6528261 60.9730435 35.6528261 20.8036957 0.92673913 0.905434783"></polygon>
                                </g>
                                <path d="M44.9628261,89.9043478 C44.5886581,89.9036838 44.221264,89.8044874 43.8976087,89.6167391 L16.3084783,73.6384783 C15.6499949,73.2583032 15.2440408,72.5560026 15.2432609,71.7956522 L15.2432609,39.9882609 C15.2440408,39.2279104 15.6499949,38.5256098 16.3084783,38.1454348 L43.8976087,22.1671739 C44.5567675,21.7866084 45.3688847,21.7866084 46.0280435,22.1671739 L73.6171739,38.1454348 C74.2756573,38.5256098 74.6816114,39.2279104 74.6823913,39.9882609 L74.6823913,71.8382609 C74.6816114,72.5986113 74.2756573,73.3009119 73.6171739,73.681087 L46.0280435,89.6593478 C45.7003192,89.8322605 45.3331628,89.9167065 44.9628261,89.9043478 Z M19.5041304,70.6132609 L44.9628261,85.3132609 L70.4215217,70.6132609 L70.4215217,41.2132609 L44.9628261,26.5132609 L19.5041304,41.2132609 L19.5041304,70.6132609 Z" id="Shape" fill-rule="nonzero"></path>
                                <path d="M108.588261,146.90413 C108.214093,146.903466 107.846699,146.80427 107.523043,146.616522 L71.9234783,126.057826 C71.2649949,125.677651 70.8590408,124.97535 70.8582609,124.215 L70.8582609,83.0869565 C70.8590408,82.3266061 71.2649949,81.6243055 71.9234783,81.2441304 L107.523043,60.7173913 C108.182202,60.3368258 108.994319,60.3368258 109.653478,60.7173913 L145.253043,81.276087 C145.911527,81.656262 146.317481,82.3585626 146.318261,83.118913 L146.318261,124.225652 C146.317481,124.986003 145.911527,125.688303 145.253043,126.068478 L109.653478,146.627174 C109.328794,146.811202 108.961463,146.906708 108.588261,146.90413 Z M75.1191304,122.99 L108.588261,142.313043 L142.057391,122.99 L142.057391,84.3332609 L108.588261,64.9782609 L75.1191304,84.3332609 L75.1191304,122.99 Z" id="Shape" fill-rule="nonzero"></path>
                                <path d="M70.8369565,110.686739 L2.13043478,110.686739 C0.953828142,110.686739 1.44092756e-16,109.732911 0,108.556304 L0,2.13043478 C-1.44092756e-16,0.953828142 0.953828142,2.16139134e-16 2.13043478,0 L87.3478261,0 C88.5244327,7.20463778e-17 89.4782609,0.953828142 89.4782609,2.13043478 L89.4782609,60.5363043 C89.4782609,61.712911 88.5244327,62.6667391 87.3478261,62.6667391 C86.1712194,62.6667391 85.2173913,61.712911 85.2173913,60.5363043 L85.2173913,4.26086957 L4.26086957,4.26086957 L4.26086957,106.42587 L70.8369565,106.42587 C72.0135632,106.42587 72.9673913,107.379698 72.9673913,108.556304 C72.9673913,109.732911 72.0135632,110.686739 70.8369565,110.686739 Z" id="Shape" fill-rule="nonzero"></path>
                                <path d="M137.753913,32.3080435 L107.981087,32.3080435 C106.80448,32.3080435 105.850652,31.3542153 105.850652,30.1776087 L105.850652,2.13043478 C105.850652,0.953828142 106.80448,2.16139134e-16 107.981087,0 L137.743261,0 C138.919868,7.20463778e-17 139.873696,0.953828142 139.873696,2.13043478 L139.873696,30.1776087 C139.87371,31.3500679 138.926358,32.3021812 137.753913,32.3080435 Z M110.122174,28.0471739 L135.623478,28.0471739 L135.623478,4.26086957 L110.111522,4.26086957 L110.122174,28.0471739 Z" id="Shape" fill-rule="nonzero"></path>
                                <path d="M122.862174,47.1678261 C122.432527,47.1677691 122.012937,47.0378075 121.658478,46.795 L113.839783,41.468913 C113.259848,41.0717894 112.913107,40.4141781 112.913043,39.7113043 L112.913043,30.1776087 C112.913043,29.0010021 113.866872,28.0471739 115.043478,28.0471739 L130.68087,28.0471739 C131.857476,28.0471739 132.811304,29.0010021 132.811304,30.1776087 L132.811304,39.7113043 C132.81124,40.4141781 132.4645,41.0717894 131.884565,41.468913 L124.06587,46.795 C123.711411,47.0378075 123.291821,47.1677691 122.862174,47.1678261 Z M117.173913,38.5821739 L122.862174,42.4595652 L128.550435,38.5821739 L128.550435,32.3080435 L117.173913,32.3080435 L117.173913,38.5821739 Z" id="Shape" fill-rule="nonzero"></path>
                                <path d="M107.981087,15.9782609 L55.7854348,15.9782609 C54.6088281,15.9782609 53.655,15.0244327 53.655,13.8478261 C53.655,12.6712194 54.6088281,11.7173913 55.7854348,11.7173913 L107.981087,11.7173913 C109.157694,11.7173913 110.111522,12.6712194 110.111522,13.8478261 C110.111522,15.0244327 109.157694,15.9782609 107.981087,15.9782609 Z" id="Shape" fill-rule="nonzero"></path>
                                <path d="M145.221087,15.8504348 L137.764565,15.8504348 C136.587959,15.8504348 135.63413,14.8966066 135.63413,13.72 C135.63413,12.5433934 136.587959,11.5895652 137.764565,11.5895652 L145.221087,11.5895652 C146.397694,11.5895652 147.351522,12.5433934 147.351522,13.72 C147.351522,14.8966066 146.397694,15.8504348 145.221087,15.8504348 Z" id="Shape" fill-rule="nonzero"></path>
                                <path d="M44.9628261,89.243913 C43.7862194,89.243913 42.8323913,88.2900849 42.8323913,87.1134783 L42.8323913,47.3063043 C42.8323913,46.1296977 43.7862194,45.1758696 44.9628261,45.1758696 C46.1394327,45.1758696 47.0932609,46.1296977 47.0932609,47.3063043 L47.0932609,87.1134783 C47.0932609,88.2900849 46.1394327,89.243913 44.9628261,89.243913 Z" id="Shape" fill-rule="nonzero"></path>
                                <path d="M44.9628261,36.5156522 C43.7862194,36.5156522 42.8323913,35.561824 42.8323913,34.3852174 L42.8323913,25.0645652 C42.8323913,23.8879586 43.7862194,22.9341304 44.9628261,22.9341304 C46.1394327,22.9341304 47.0932609,23.8879586 47.0932609,25.0645652 L47.0932609,34.3852174 C47.0932609,35.561824 46.1394327,36.5156522 44.9628261,36.5156522 Z" id="Shape" fill-rule="nonzero"></path>
                                <path d="M36.4517391,62.9543478 C35.4890035,62.9526446 34.6470446,62.3054947 34.397742,61.3755963 C34.1484395,60.4456979 34.5537526,59.4641588 35.3865217,58.981087 L71.2843478,38.2519565 C71.9447593,37.8321344 72.7821755,37.8081705 73.4655143,38.1895393 C74.148853,38.5709081 74.5681048,39.2962136 74.5575135,40.078698 C74.5469223,40.8611824 74.1081931,41.5748748 73.4147826,41.9376087 L37.5169565,62.6773913 C37.1922721,62.8614192 36.824941,62.9569253 36.4517391,62.9543478 Z" id="Shape" fill-rule="nonzero"></path>
                                <path d="M17.576087,73.8621739 C16.6133513,73.8604707 15.7713924,73.2133208 15.5220899,72.2834224 C15.2727874,71.353524 15.6781004,70.3719849 16.5108696,69.888913 L24.2017391,65.4469565 C24.8621506,65.0271344 25.6995668,65.0031705 26.3829056,65.3845393 C27.0662443,65.7659081 27.4854961,66.4912136 27.4749048,67.273698 C27.4643136,68.0561824 27.0255844,68.7698748 26.3321739,69.1326087 L18.6413043,73.5745652 C18.3176491,73.7623135 17.950255,73.8615099 17.576087,73.8621739 Z" id="Shape" fill-rule="nonzero"></path>
                                <path d="M53.473913,62.9543478 C53.099745,62.9536838 52.7323509,62.8544874 52.4086957,62.6667391 L16.5108696,41.9482609 C15.8174591,41.585527 15.3787299,40.8718345 15.3681387,40.0893502 C15.3575474,39.3068658 15.7767992,38.5815602 16.4601379,38.2001915 C17.1434767,37.8188227 17.9808928,37.8427866 18.6413043,38.2626087 L54.5391304,58.981087 C55.3718996,59.4641588 55.7772126,60.4456979 55.5279101,61.3755963 C55.2786076,62.3054947 54.4366487,62.9526446 53.473913,62.9543478 Z" id="Shape" fill-rule="nonzero"></path>
                                <path d="M72.3495652,73.8621739 C71.9753972,73.8615099 71.6080031,73.7623135 71.2843478,73.5745652 L63.5934783,69.1326087 C62.9000678,68.7698748 62.4613386,68.0561824 62.4507474,67.273698 C62.4401561,66.4912136 62.8594079,65.7659081 63.5427466,65.3845393 C64.2260853,65.0031705 65.0635015,65.0271344 65.723913,65.4469565 L73.4147826,69.888913 C74.2475517,70.3719849 74.6528648,71.353524 74.4035623,72.2834224 C74.1542598,73.2133208 73.3123008,73.8604707 72.3495652,73.8621739 Z" id="Shape" fill-rule="nonzero"></path>
                                <path d="M134.057609,91.203913 C133.094873,91.2022098 132.252914,90.5550599 132.003612,89.6251615 C131.754309,88.6952631 132.159622,87.713724 132.992391,87.2306522 L142.73913,81.6063043 C143.750768,81.0771007 144.999748,81.4394408 145.571103,82.4278847 C146.142458,83.4163286 145.83306,84.6794651 144.869565,85.2919565 L135.133478,90.9163043 C134.806699,91.1058682 134.435389,91.2051292 134.057609,91.203913 Z" id="Shape" fill-rule="nonzero"></path>
                                <path d="M125.695652,95.9973913 C125.414379,95.9987984 125.135612,95.944493 124.875435,95.8376087 C124.618043,95.7305311 124.385842,95.5708932 124.193696,95.368913 C124.090829,95.2749778 124.001237,95.1674677 123.927391,95.0493478 C123.764202,94.821173 123.654936,94.5589326 123.607826,94.2823913 C123.591403,94.1444 123.591403,94.0049478 123.607826,93.8669565 C123.592076,93.7289261 123.592076,93.5895521 123.607826,93.4515217 C123.635153,93.3169386 123.674365,93.1850449 123.725,93.0573913 C123.781747,92.9275905 123.849456,92.8028635 123.927391,92.6845652 C124.001449,92.5665989 124.091018,92.459116 124.193696,92.365 C124.290524,92.2652063 124.397642,92.175941 124.513261,92.0986957 C124.628099,92.0242345 124.749296,91.9600716 124.875435,91.9069565 C125.005337,91.8498195 125.14106,91.8069595 125.280217,91.7791304 C125.554622,91.7259556 125.836683,91.7259556 126.111087,91.7791304 C126.2472,91.8054482 126.379567,91.848378 126.505217,91.9069565 C126.635764,91.9578608 126.760702,92.0221149 126.878043,92.0986957 C126.993662,92.175941 127.10078,92.2652063 127.197609,92.365 C127.300286,92.459116 127.389856,92.5665989 127.463913,92.6845652 C127.545751,92.800482 127.61368,92.9256157 127.666304,93.0573913 C127.722174,93.1831733 127.761558,93.3156467 127.783478,93.4515217 C127.799229,93.5895521 127.799229,93.7289261 127.783478,93.8669565 C127.799901,94.0049478 127.799901,94.1444 127.783478,94.2823913 C127.761315,94.4216465 127.721957,94.557613 127.666304,94.6871739 C127.613447,94.813435 127.549272,94.9346539 127.474565,95.0493478 C127.393847,95.1653949 127.301005,95.2725202 127.197609,95.368913 C127.100996,95.4720815 126.993896,95.5649015 126.878043,95.6458696 C126.763205,95.7203308 126.642009,95.7844936 126.51587,95.8376087 C126.386028,95.8924719 126.250158,95.9318025 126.111087,95.9547826 C125.974715,95.984959 125.83531,95.999257 125.695652,95.9973913 Z" id="Shape" fill-rule="nonzero"></path>
                                <path d="M108.449783,105.98913 C107.487047,105.987427 106.645088,105.340277 106.395786,104.410379 C106.146483,103.480481 106.551796,102.498941 107.384565,102.01587 L117.088696,96.4128261 C117.749107,95.9930039 118.586523,95.9690401 119.269862,96.3504089 C119.953201,96.7317776 120.372453,97.4570832 120.361861,98.2395676 C120.35127,99.0220519 119.912541,99.7357443 119.21913,100.098478 L109.515,105.701522 C109.191345,105.88927 108.823951,105.988466 108.449783,105.98913 Z" id="Shape" fill-rule="nonzero"></path>
                                <path d="M108.652174,105.98913 C108.278006,105.988466 107.910612,105.88927 107.586957,105.701522 L72.211087,85.2919565 C71.5176765,84.9292226 71.0789473,84.2155302 71.0683561,83.4330458 C71.0577648,82.6505614 71.4770166,81.9252559 72.1603553,81.5438871 C72.843694,81.1625183 73.6811102,81.1864822 74.3415217,81.6063043 L109.717391,102.005217 C110.55016,102.488289 110.955474,103.469828 110.706171,104.399727 C110.456868,105.329625 109.61491,105.976775 108.652174,105.978478 L108.652174,105.98913 Z" id="Shape" fill-rule="nonzero"></path>
                                <path d="M108.588261,145.689783 C107.411654,145.689783 106.457826,144.735954 106.457826,143.559348 L106.457826,104.146304 C106.457826,102.969698 107.411654,102.01587 108.588261,102.01587 C109.764868,102.01587 110.718696,102.969698 110.718696,104.146304 L110.718696,143.559348 C110.718696,144.735954 109.764868,145.689783 108.588261,145.689783 Z" id="Shape" fill-rule="nonzero"></path>
                                <path d="M108.449783,64.9782609 C107.273176,64.9782609 106.319348,64.0244327 106.319348,62.8478261 L106.319348,57.82 C106.319348,54.2901801 109.180832,51.4286957 112.710652,51.4286957 L118.601304,51.4286957 C119.777911,51.4286957 120.731739,50.4748675 120.731739,49.2982609 L120.731739,45.0373913 C120.731739,43.8607847 121.685567,42.9069565 122.862174,42.9069565 C124.038781,42.9069565 124.992609,43.8607847 124.992609,45.0373913 L124.992609,49.2982609 C124.992609,52.8280808 122.131124,55.6895652 118.601304,55.6895652 L112.710652,55.6895652 C111.534046,55.6895652 110.580217,56.6433934 110.580217,57.82 L110.580217,62.8478261 C110.580217,64.0244327 109.626389,64.9782609 108.449783,64.9782609 Z" id="Shape" fill-rule="nonzero"></path>
                                <path d="M45.8043478,15.9782609 C44.6277412,15.8635417 43.7669113,14.8167153 43.8816304,13.6401087 C43.9963496,12.4635021 45.043176,11.6026722 46.2197826,11.7173913 C46.3579449,11.7489834 46.4933165,11.7917323 46.6245652,11.8452174 C46.7507044,11.8983325 46.8719008,11.9624953 46.9867391,12.0369565 C47.1039991,12.1164231 47.2144518,12.2054978 47.3169565,12.3032609 C47.7170033,12.7028628 47.9417846,13.2451064 47.9417846,13.8105435 C47.9417846,14.3759806 47.7170033,14.9182241 47.3169565,15.3178261 L46.9867391,15.5841304 C46.8719291,15.6586399 46.7507283,15.722805 46.6245652,15.7758696 C46.4948251,15.8310197 46.358921,15.8703604 46.2197826,15.8930435 C46.0850451,15.9373415 45.945644,15.9659366 45.8043478,15.9782609 Z" id="Shape" fill-rule="nonzero"></path>
                            </g>
                        </g>
                        <g id="Group-4" transform="translate(50.000000, 169.000000)">
                            <circle id="Oval-Copy-26" cx="5.76923077" cy="5.76923077" r="5.76923077"></circle>
                            <circle id="Oval-Copy-33" cx="25" cy="5.76923077" r="5.76923077"></circle>
                            <circle id="Oval-Copy-34" opacity="0.300000012" cx="44.2307692" cy="5.76923077" r="5.76923077"></circle>
                        </g>
                    </g>
                </g>
            </g>
        </g>
    </g>
</svg>