<?xml version="1.0" encoding="UTF-8"?>
<svg width="100px" height="100px" viewBox="0 0 100 100" version="1.1" xmlns="http://www.w3.org/2000/svg" xmlns:xlink="http://www.w3.org/1999/xlink">
    <!-- Generator: sketchtool 50.2 (55047) - http://www.bohemiancoding.com/sketch -->
    <title>B26F17F6-83C7-4068-9473-03B9BA163529</title>
    <desc>Created with sketchtool.</desc>
    <defs></defs>
    <g id="Symbols" stroke="none" stroke-width="1" fill="none" fill-rule="evenodd">
        <g id="Icon4" fill="#E52839" fill-rule="nonzero">
            <g transform="translate(1.000000, 2.000000)">
                <g id="Group" opacity="0.4" transform="translate(32.219178, 55.712329)">
                    <rect id="Rectangle-path" x="0.396027397" y="0.369178082" width="32.3467123" height="36.1526027"></rect>
                </g>
                <g id="Group" opacity="0.4" transform="translate(2.013699, 24.835616)">
                    <rect id="Rectangle-path" x="0.16109589" y="0.463150685" width="93.2342466" height="18.6468493"></rect>
                </g>
                <path d="M9.39726027,13.5589041 L6.71232877,13.5589041 L6.71232877,3.69178082 C6.65045545,1.75675466 8.1363434,0.12227792 10.0684932,0 L87.5287671,0 C89.4726087,0.0977521216 90.9723306,1.74744621 90.8849315,3.69178082 L90.8849315,13.4917808 L88.2,13.4917808 L88.2,3.69178082 C88.2,3.15479452 87.8845205,2.68493151 87.5287671,2.68493151 L10.0684932,2.68493151 C9.8,2.68493151 9.39726027,3.10780822 9.39726027,3.69178082 L9.39726027,13.5589041 Z" id="Shape"></path>
                <g id="Group" opacity="0.4" transform="translate(7.383562, 1.342466)">
                    <path d="M0.671232877,12.2164384 L0.671232877,2.34931507 C0.607858916,1.15427367 1.49425693,0.120142653 2.68493151,0 L80.1452055,0 C81.3481386,0.0963762118 82.2476397,1.1457942 82.1589041,2.34931507 L82.1589041,12.1493151" id="Shape"></path>
                </g>
                <path d="M48.7919178,92.4287671 C48.0504944,92.4287671 47.4494521,91.8277247 47.4494521,91.0863014 L47.4494521,67.1232877 C47.4494521,66.3818643 48.0504944,65.7808219 48.7919178,65.7808219 C49.5333412,65.7808219 50.1343836,66.3818643 50.1343836,67.1232877 L50.1343836,91.0863014 C50.1343836,91.8277247 49.5333412,92.4287671 48.7919178,92.4287671 Z" id="Shape"></path>
                <path d="M48.7919178,63.5657534 C48.6142247,63.5645139 48.4385458,63.5280092 48.2750685,63.4583562 C48.1121149,63.3916874 47.9638669,63.2936157 47.8387671,63.169726 C47.7729383,63.1052768 47.7123365,63.0356969 47.6575342,62.9616438 C47.6092672,62.890079 47.5687645,62.8135739 47.5367123,62.7334247 C47.5019785,62.6539915 47.4771792,62.5705758 47.4628767,62.4850685 C47.4528343,62.3980972 47.4528343,62.310259 47.4628767,62.2232877 C47.4608137,61.8664563 47.6009003,61.5234856 47.8521918,61.270137 C48.1696943,60.9512243 48.6258667,60.8126084 49.0671233,60.9009589 C49.1520968,60.9205232 49.2351982,60.947475 49.3154795,60.9815068 C49.3977025,61.01367 49.4764222,61.0541545 49.550411,61.1023288 C49.621725,61.1530354 49.6890456,61.2091359 49.7517808,61.270137 C50.0055333,61.5223839 50.1480917,61.8654906 50.1478082,62.2232877 C50.1578506,62.310259 50.1578506,62.3980972 50.1478082,62.4850685 C50.1331824,62.5705007 50.1083946,62.6538778 50.0739726,62.7334247 C50.0423828,62.8151062 49.99945,62.8919333 49.9464384,62.9616438 C49.9000654,63.038201 49.8436253,63.1081867 49.7786301,63.169726 C49.5182453,63.4319045 49.1613082,63.575165 48.7919178,63.5657534 Z" id="Shape"></path>
                <path d="M25.3457534,44.6571233 C24.6043301,44.6571233 24.0032877,44.0560809 24.0032877,43.3146575 L24.0032877,25.2987671 C24.0032877,24.5573438 24.6043301,23.9563014 25.3457534,23.9563014 C26.0871768,23.9563014 26.6882192,24.5573438 26.6882192,25.2987671 L26.6882192,43.3146575 C26.6882192,44.0560809 26.0871768,44.6571233 25.3457534,44.6571233 Z" id="Shape"></path>
                <path d="M72.5938356,37.9380822 C71.8524123,37.9380822 71.2513699,37.3370398 71.2513699,36.5956164 L71.2513699,25.2987671 C71.2513699,24.5573438 71.8524123,23.9563014 72.5938356,23.9563014 C73.335259,23.9563014 73.9363014,24.5573438 73.9363014,25.2987671 L73.9363014,36.5956164 C73.9363014,37.3370398 73.335259,37.9380822 72.5938356,37.9380822 Z" id="Shape"></path>
                <path d="M48.7919178,45.2947945 C48.0504944,45.2947945 47.4494521,44.6937521 47.4494521,43.9523288 L47.4494521,31.3465753 C47.4494521,30.605152 48.0504944,30.0041096 48.7919178,30.0041096 C49.5333412,30.0041096 50.1343836,30.605152 50.1343836,31.3465753 L50.1343836,43.9523288 C50.1343836,44.6937521 49.5333412,45.2947945 48.7919178,45.2947945 Z" id="Shape"></path>
                <path d="M94.100137,95.1136986 L3.48369863,95.1136986 C2.74227527,95.1136986 2.14123288,94.5126562 2.14123288,93.7712329 L2.14123288,13.5589041 C2.14123288,12.8174807 2.74227527,12.2164384 3.48369863,12.2164384 L16.5593151,12.2164384 C17.3007384,12.2164384 17.9017808,12.8174807 17.9017808,13.5589041 C17.9017808,14.3003275 17.3007384,14.9013699 16.5593151,14.9013699 L4.82616438,14.9013699 L4.82616438,92.4287671 L92.7576712,92.4287671 L92.7576712,14.9013699 L27.7823288,14.9013699 C27.0409054,14.9013699 26.439863,14.3003275 26.439863,13.5589041 C26.439863,12.8174807 27.0409054,12.2164384 27.7823288,12.2164384 L94.100137,12.2164384 C94.8415603,12.2164384 95.4426027,12.8174807 95.4426027,13.5589041 L95.4426027,93.7712329 C95.4426027,94.5126562 94.8415603,95.1136986 94.100137,95.1136986 Z" id="Shape"></path>
                <path d="M21.7412329,14.9013699 C21.6542515,14.911237 21.5664334,14.911237 21.4794521,14.9013699 C21.394744,14.8837606 21.3116661,14.8590618 21.2310959,14.8275342 C21.1506156,14.7891475 21.072198,14.7465779 20.9961644,14.7 C20.8517794,14.6002939 20.7266924,14.4752069 20.6269863,14.3308219 C20.5799572,14.2561739 20.53953,14.1775654 20.5061644,14.0958904 C20.4724102,14.0155057 20.4454662,13.9324284 20.4256164,13.8475342 C20.4190117,13.7603989 20.4190117,13.6728887 20.4256164,13.5857534 C20.4145107,13.2206383 20.5526676,12.8667626 20.8082192,12.6057534 C20.8706926,12.5444622 20.9380369,12.488342 21.009589,12.4379452 C21.0842371,12.3909161 21.1628456,12.3504889 21.2445205,12.3171233 C21.3239771,12.2824534 21.4073847,12.2576565 21.4928767,12.2432877 C21.8915519,12.1639462 22.3047065,12.2695182 22.6164482,12.5303899 C22.92819,12.7912617 23.1049416,13.1793351 23.0971233,13.5857534 C23.1071066,13.6727282 23.1071066,13.7605595 23.0971233,13.8475342 C23.0827545,13.9330262 23.0579576,14.0164339 23.0232877,14.0958904 C22.9902412,14.1789804 22.9474291,14.2578449 22.8957534,14.3308219 C22.8496976,14.403718 22.7956659,14.4712577 22.7346575,14.5321918 C22.4681592,14.7862841 22.1089911,14.9197587 21.7412329,14.9013699 Z" id="Shape"></path>
                <path d="M95.4023288,26.500274 L2.17479452,26.500274 C1.43337116,26.500274 0.832328767,25.8992316 0.832328767,25.1578082 C0.832328767,24.4163849 1.43337116,23.8153425 2.17479452,23.8153425 L95.4090411,23.8153425 C96.1504645,23.8153425 96.7515068,24.4163849 96.7515068,25.1578082 C96.7515068,25.8992316 96.1504645,26.500274 95.4090411,26.500274 L95.4023288,26.500274 Z" id="Shape"></path>
                <path d="M77.1179452,45.3082192 L2.17479452,45.3082192 C1.43337116,45.3082192 0.832328767,44.7071768 0.832328767,43.9657534 C0.832328767,43.2243301 1.43337116,42.6232877 2.17479452,42.6232877 L77.1179452,42.6232877 C77.8593686,42.6232877 78.460411,43.2243301 78.460411,43.9657534 C78.460411,44.7071768 77.8593686,45.3082192 77.1179452,45.3082192 Z" id="Shape"></path>
                <path d="M95.4023288,45.3082192 L86.8776712,45.3082192 C86.1362479,45.3082192 85.5352055,44.7071768 85.5352055,43.9657534 C85.5352055,43.2243301 86.1362479,42.6232877 86.8776712,42.6232877 L95.4023288,42.6232877 C96.1437521,42.6232877 96.7447945,43.2243301 96.7447945,43.9657534 C96.7447945,44.7071768 96.1437521,45.3082192 95.4023288,45.3082192 Z" id="Shape"></path>
                <path d="M82.5616438,45.3082192 C82.4746725,45.3182616 82.3868344,45.3182616 82.299863,45.3082192 C82.2153563,45.2898192 82.1323404,45.2651388 82.0515068,45.2343836 C81.9697847,45.198482 81.8912015,45.1558225 81.8165753,45.1068493 C81.7433337,45.0586927 81.6757802,45.002398 81.6152055,44.9390411 C81.3564372,44.6818969 81.2134613,44.3305156 81.2191781,43.9657534 C81.2124157,43.8786242 81.2124157,43.7911019 81.2191781,43.7039726 C81.2390854,43.6169114 81.2660231,43.5316088 81.299726,43.4489041 C81.3330994,43.3693735 81.3735352,43.2929947 81.4205479,43.2206849 C81.4708155,43.1469379 81.5269324,43.0773529 81.5883562,43.0126027 C81.6507853,42.9532858 81.7181519,42.8993925 81.789726,42.8515068 C81.8628661,42.8000936 81.9416987,42.7572987 82.0246575,42.7239726 C82.1044483,42.6902258 82.1877461,42.6654616 82.2730137,42.650137 C82.4459259,42.6166295 82.6236631,42.6166295 82.7965753,42.650137 C82.8842374,42.6644936 82.9698681,42.6892814 83.0516438,42.7239726 C83.1331416,42.7559524 83.2099167,42.7988561 83.279863,42.8515068 C83.3547629,42.8976419 83.4245195,42.951647 83.4879452,43.0126027 C83.5474336,43.0790221 83.6034446,43.1484757 83.6557534,43.2206849 C83.7027662,43.2929947 83.743202,43.3693735 83.7765753,43.4489041 C83.8108828,43.5313893 83.8378368,43.6167439 83.8571233,43.7039726 C83.86394,43.7910997 83.86394,43.8786263 83.8571233,43.9657534 C83.8574062,44.3202617 83.7174538,44.6604909 83.4678082,44.9121918 C83.4063244,44.977247 83.3363302,45.033694 83.259726,45.08 C83.1882736,45.1302982 83.1117902,45.1730389 83.0315068,45.2075342 C82.9487104,45.2392715 82.8633853,45.2639709 82.7764384,45.2813699 C82.7059271,45.2975307 82.6339635,45.3065262 82.5616438,45.3082192 Z" id="Shape"></path>
                <path d="M27.3057534,85.0452055 L3.88643836,85.0452055 C3.14501499,85.0452055 2.5439726,84.4441631 2.5439726,83.7027397 C2.5439726,82.9613164 3.14501499,82.360274 3.88643836,82.360274 L27.3124658,82.360274 C28.0538891,82.360274 28.6549315,82.9613164 28.6549315,83.7027397 C28.6549315,84.4441631 28.0538891,85.0452055 27.3124658,85.0452055 L27.3057534,85.0452055 Z" id="Shape"></path>
                <path d="M93.7578082,85.0452055 L70.3317808,85.0452055 C69.5903575,85.0452055 68.9893151,84.4441631 68.9893151,83.7027397 C68.9893151,82.9613164 69.5903575,82.360274 70.3317808,82.360274 L93.7578082,82.360274 C94.4992316,82.360274 95.100274,82.9613164 95.100274,83.7027397 C95.100274,84.4441631 94.4992316,85.0452055 93.7578082,85.0452055 Z" id="Shape"></path>
                <path d="M64.9619178,93.569863 L32.6152055,93.569863 C31.8737821,93.569863 31.2727397,92.9688206 31.2727397,92.2273973 L31.2727397,56.0815068 C31.2727397,55.3400835 31.8737821,54.7390411 32.6152055,54.7390411 L64.9619178,54.7390411 C65.7033412,54.7390411 66.3043836,55.3400835 66.3043836,56.0815068 L66.3043836,92.2273973 C66.3043836,92.9688206 65.7033412,93.569863 64.9619178,93.569863 Z M33.9576712,90.8849315 L63.6194521,90.8849315 L63.6194521,57.4239726 L33.9576712,57.4239726 L33.9576712,90.8849315 Z" id="Shape"></path>
                <path d="M96.2346575,95.6506849 L1.34246575,95.6506849 C0.601042391,95.6506849 9.07981748e-17,95.0496425 0,94.3082192 C-9.07981748e-17,93.5667958 0.601042391,92.9657534 1.34246575,92.9657534 L96.2346575,92.9657534 C96.9760809,92.9657534 97.5771233,93.5667958 97.5771233,94.3082192 C97.5771233,95.0496425 96.9760809,95.6506849 96.2346575,95.6506849 Z" id="Shape"></path>
            </g>
        </g>
    </g>
</svg>