<?xml version="1.0" encoding="UTF-8"?>
<svg width="54px" height="54px" viewBox="0 0 54 54" version="1.1" xmlns="http://www.w3.org/2000/svg" xmlns:xlink="http://www.w3.org/1999/xlink">
    <!-- Generator: sketchtool 50.2 (55047) - http://www.bohemiancoding.com/sketch -->
    <title>3B700A3C-3212-4A64-8E04-22FCAE5DCCB0</title>
    <desc>Created with sketchtool.</desc>
    <defs></defs>
    <g id="MAKERS-ARK" stroke="none" stroke-width="1" fill="none" fill-rule="evenodd" opacity="0.879551004">
        <g id="MAKERS-ARK_DESKTOP" transform="translate(-1093.000000, -11871.000000)" fill="#E52839">
            <g id="FOOTER" transform="translate(0.000000, 11804.000000)">
                <g id="Social" transform="translate(998.000000, 22.000000)">
                    <path d="M122,99 C107.088312,99 95,86.9116882 95,72 C95,57.0883118 107.088312,45 122,45 C136.911688,45 149,57.0883118 149,72 C149,86.9116882 136.911688,99 122,99 Z M121.840399,69.1991798 L121.896128,70.1334408 L120.967311,70.0190415 C117.586418,69.5805108 114.63278,68.09332 112.124975,65.595602 L110.898937,64.3562763 L110.583139,65.2714707 C109.914391,67.3115915 110.341646,69.4661115 111.734872,70.9151693 C112.477925,71.7159643 112.310738,71.8303636 111.028971,71.3536999 C110.583139,71.2011675 110.193036,71.0867682 110.155883,71.1439679 C110.025849,71.2774337 110.471681,73.0124897 110.824631,73.6988855 C111.307616,74.6522129 112.292162,75.5864738 113.369589,76.1394038 L114.27983,76.5779344 L113.202402,76.597001 C112.162127,76.597001 112.124975,76.6160675 112.236433,77.016465 C112.607959,78.2557907 114.07549,79.5713826 115.710208,80.1433791 L116.86194,80.5437766 L115.858818,81.1539062 C114.372711,82.0309675 112.626536,82.5266978 110.88036,82.5648309 C110.044425,82.5838974 109.357101,82.6601636 109.357101,82.7173633 C109.357101,82.9080288 111.623414,83.9757555 112.942334,84.3952196 C116.899093,85.6345453 121.598906,85.1006819 125.12841,82.9842949 C127.636216,81.4780376 130.144021,78.4845893 131.31433,75.5864738 C131.945926,74.0420834 132.577521,71.2202341 132.577521,69.8665091 C132.577521,68.9894478 132.63325,68.8750485 133.673525,67.8263883 C134.286544,67.2162587 134.86241,66.5489295 134.973868,66.358264 C135.159632,65.9959996 135.141055,65.9959996 134.193662,66.3201309 C132.614674,66.8921274 132.391758,66.8158612 133.171964,65.9578665 C133.74783,65.3477369 134.435155,64.241877 134.435155,63.9177457 C134.435155,63.8605461 134.15651,63.9558788 133.840712,64.1274777 C133.506338,64.3181432 132.763284,64.6041415 132.205994,64.7757404 L131.202872,65.0998718 L130.292632,64.4706756 C129.791071,64.1274777 129.08517,63.7461468 128.713643,63.6317475 C127.76625,63.3648158 126.317296,63.4029489 125.462784,63.7080137 C123.140742,64.5660084 121.673212,66.7777281 121.840399,69.1991798 Z" id="Twitter"></path>
                </g>
            </g>
        </g>
    </g>
</svg>